<?xml version="1.0" standalone="no"?>
<!DOCTYPE svg PUBLIC "-//W3C//DTD SVG 20010904//EN"
 "http://www.w3.org/TR/2001/REC-SVG-20010904/DTD/svg10.dtd">
<svg version="1.0" xmlns="http://www.w3.org/2000/svg"
 width="1280.000000pt" height="640.000000pt" viewBox="0 0 1280.000000 640.000000"
 preserveAspectRatio="xMidYMid meet">
<metadata>
Created by potrace 1.15, written by Peter Selinger 2001-2017
</metadata>
<g transform="translate(0.000000,640.000000) scale(0.100000,-0.100000)"
fill="#ffffff" stroke="none">
<path d="M6510 5817 c-187 -37 -237 -132 -227 -432 8 -215 55 -454 117 -591
21 -47 38 -69 74 -93 62 -43 290 -153 516 -249 l184 -79 8 -38 c15 -70 70
-128 221 -232 59 -41 107 -75 107 -76 0 -2 -38 2 -85 7 -52 6 -89 6 -94 0 -9
-10 -144 -574 -138 -580 1 -2 45 -23 96 -47 l93 -44 -34 -23 c-52 -36 -129
-112 -140 -140 -6 -14 -16 -50 -22 -80 -14 -63 -10 -62 -138 -40 -43 8 -81 10
-85 6 -5 -4 10 -23 31 -41 l39 -32 -67 -5 c-62 -4 -69 -7 -109 -46 -58 -57
-83 -56 -77 2 5 48 -8 65 -58 71 -26 3 -59 8 -74 10 -25 4 -28 1 -28 -23 0
-65 -57 -84 -75 -24 -12 43 -33 41 -91 -8 -51 -45 -65 -47 -38 -6 9 15 13 30
10 34 -4 4 -77 7 -161 7 l-154 0 -39 -38 c-50 -49 -89 -49 -84 -2 5 50 -14 64
-93 67 -60 3 -70 1 -67 -13 1 -9 -2 -29 -8 -43 -16 -44 -70 -28 -70 21 0 26
-14 28 -49 9 -17 -10 -34 -11 -55 -5 -17 5 -88 9 -159 9 l-128 0 -48 -45 c-26
-25 -58 -45 -70 -45 -18 0 -21 6 -21 38 0 58 -15 70 -92 74 l-68 4 0 -32 c0
-61 -58 -74 -75 -16 -5 17 -15 32 -22 32 -8 0 -33 -18 -57 -40 -57 -53 -87
-54 -50 -2 14 20 14 23 -3 30 -10 4 -82 7 -160 7 l-142 0 -38 -37 c-26 -25
-48 -38 -66 -38 -25 0 -27 3 -27 38 0 20 -4 42 -8 48 -4 7 -40 15 -79 19 l-73
7 0 -34 c0 -38 -15 -58 -42 -58 -20 0 -42 35 -34 56 8 21 -27 17 -57 -6 -18
-14 -26 -17 -29 -8 -4 10 -46 14 -156 16 l-151 4 -50 -47 c-62 -58 -85 -57
-86 3 -1 23 -5 46 -11 51 -5 5 -40 11 -79 12 -64 3 -70 2 -68 -15 2 -32 -15
-66 -35 -66 -25 0 -42 19 -42 47 0 13 -6 23 -14 23 -12 0 -27 -10 -103 -65
-25 -19 -73 -11 -54 8 26 26 10 34 -76 40 -49 3 -121 2 -161 -2 -68 -6 -76
-10 -108 -44 -21 -22 -45 -37 -58 -37 -20 0 -24 6 -29 45 -2 26 -6 48 -8 49
-2 2 -37 6 -76 8 l-73 4 0 -31 c0 -36 -16 -55 -46 -55 -22 0 -34 17 -34 51 0
10 -2 19 -5 19 -15 0 -62 -31 -84 -54 -14 -14 -35 -26 -48 -26 -27 0 -28 7 -8
34 8 11 15 23 15 27 0 13 -122 21 -219 14 l-96 -7 -46 -49 c-25 -27 -52 -49
-61 -49 -18 0 -30 23 -22 43 3 8 0 26 -5 40 -10 26 -13 27 -85 27 l-75 0 -3
-37 c-3 -35 -6 -38 -33 -38 -22 0 -31 5 -33 20 -7 44 -10 47 -39 31 -16 -8
-41 -28 -57 -45 -36 -37 -66 -44 -42 -9 9 12 16 26 16 30 0 12 -208 10 -271
-2 -40 -8 -60 -18 -85 -45 -23 -26 -40 -35 -63 -35 -24 0 -31 4 -31 20 0 10
-5 31 -12 45 -12 27 -21 29 -105 19 l-52 -7 -3 -41 c-3 -38 -5 -41 -33 -41
-25 0 -30 4 -33 28 -4 31 -18 34 -51 10 -17 -11 -42 -16 -90 -14 -70 2 -228
-20 -272 -37 -18 -7 -35 -31 -57 -76 -17 -36 -43 -72 -57 -82 -24 -16 -27 -15
-70 7 -25 13 -45 27 -45 30 0 4 -14 12 -31 20 -32 13 -32 12 -80 -42 l-48 -54
25 -26 c29 -31 31 -55 3 -69 -16 -9 -26 -8 -45 5 -26 17 -24 18 -38 -28 -2 -7
0 -38 5 -70 7 -44 6 -65 -6 -93 -16 -38 -12 -37 -84 -18 -23 7 -24 6 -17 -42
10 -71 46 -215 62 -245 8 -15 41 -42 76 -61 80 -44 93 -68 67 -117 -10 -20
-19 -41 -19 -47 0 -11 119 -100 124 -93 1 2 10 17 20 32 19 32 52 34 70 5 8
-13 7 -23 -2 -39 -12 -18 -12 -23 0 -30 29 -19 112 2 128 31 12 21 45 27 55 9
4 -6 -3 -21 -16 -35 -12 -13 -20 -27 -16 -30 20 -21 274 -68 305 -57 10 4 38
21 63 40 26 18 57 33 69 33 18 0 21 -5 19 -32 -5 -80 -5 -80 99 -94 48 -6 52
-5 52 14 0 11 8 30 18 42 16 19 22 21 40 11 15 -8 22 -21 22 -41 0 -39 16 -38
80 5 62 41 76 44 54 10 -9 -14 -15 -27 -13 -30 11 -10 142 -25 223 -25 87 0
90 1 133 36 58 48 88 43 88 -16 1 -22 5 -44 10 -49 6 -5 40 -11 77 -15 l68 -7
0 30 c0 26 21 61 36 61 23 0 44 -25 44 -51 0 -27 3 -30 23 -23 31 10 75 42 87
65 11 19 45 26 54 10 3 -5 -1 -14 -9 -21 -44 -36 9 -50 193 -50 l103 0 49 46
c61 57 85 56 86 -4 0 -23 5 -47 10 -52 6 -6 42 -11 80 -13 61 -2 69 0 66 15
-5 32 17 59 46 56 22 -2 28 -9 30 -36 3 -29 6 -32 25 -26 12 3 37 18 56 33 55
43 60 46 68 38 4 -4 1 -17 -6 -29 -8 -13 -9 -24 -3 -30 6 -6 76 -10 156 -11
l146 -1 38 37 c27 26 47 37 69 37 26 0 30 -3 26 -23 -2 -12 0 -34 6 -50 10
-26 13 -27 81 -27 67 0 70 1 70 24 0 13 8 34 18 46 16 19 22 21 40 11 15 -8
22 -21 22 -41 0 -35 5 -36 46 -11 24 14 35 16 43 8 8 -8 63 -12 161 -12 l149
0 50 49 c58 57 81 57 81 -1 0 -21 4 -43 8 -50 4 -6 39 -14 79 -18 l72 -7 3 37
c4 49 29 66 58 40 11 -10 19 -28 18 -39 -2 -16 2 -20 17 -18 24 4 85 49 85 63
0 5 7 9 15 9 18 0 19 -5 3 -30 -7 -10 -9 -22 -5 -27 4 -4 75 -7 157 -8 l149 0
38 37 c26 25 48 38 66 38 24 0 27 -4 27 -33 0 -52 16 -65 93 -69 65 -4 67 -3
67 20 0 36 18 62 44 62 24 0 36 -17 36 -51 0 -25 21 -24 53 1 18 14 26 17 29
8 3 -9 45 -13 160 -13 l155 0 52 48 c28 27 57 47 64 44 7 -2 13 -25 15 -51 4
-55 21 -66 108 -66 50 0 54 2 54 24 0 39 11 56 36 56 24 0 50 -33 39 -50 -9
-15 14 -21 37 -9 33 17 78 61 78 76 0 7 9 13 21 13 l21 0 -21 -36 c-12 -19
-21 -40 -21 -45 0 -7 54 -9 154 -7 l153 3 46 42 c56 52 82 50 90 -9 3 -22 7
-41 9 -43 1 -1 36 -6 76 -10 l72 -7 0 34 c0 39 15 58 46 58 22 0 34 -17 34
-51 0 -24 7 -24 45 0 24 14 36 16 58 8 16 -5 84 -7 153 -5 107 4 129 8 153 26
28 21 29 21 46 2 9 -10 28 -69 41 -132 13 -62 33 -150 45 -195 l22 -81 -82
-105 c-44 -58 -81 -111 -81 -117 0 -8 12 -10 38 -6 20 3 74 10 120 16 l83 11
85 -80 c94 -89 153 -133 217 -161 43 -19 175 -50 214 -50 13 0 29 -12 41 -32
41 -65 78 -92 130 -92 46 -1 47 0 52 31 10 67 61 95 124 69 26 -11 41 -26 51
-51 17 -39 38 -44 85 -20 39 20 69 60 81 111 11 41 14 43 53 49 102 13 343 26
591 32 243 5 280 4 360 -13 73 -15 132 -19 305 -19 216 0 285 7 440 45 48 12
170 24 340 35 146 9 274 21 285 25 11 5 43 12 71 15 37 5 60 15 83 36 18 16
44 29 58 29 13 0 70 9 125 20 472 97 854 390 1060 815 30 64 112 182 280 410
l238 320 -6 175 -7 175 -191 185 c-422 408 -382 374 -467 400 l-77 24 -12 75
c-37 245 -226 782 -336 959 -101 161 -216 239 -480 324 l-132 43 -3 82 c-5
116 -43 162 -154 187 -147 34 -714 85 -1030 93 -214 5 -234 4 -289 -15 -60
-20 -60 -20 -210 -1 -292 36 -308 40 -361 90 -39 36 -119 76 -184 91 -69 16
-111 -3 -137 -62 l-18 -41 -176 5 c-96 3 -208 8 -248 11 -284 25 -492 -242
-553 -710 -7 -49 -13 -92 -15 -94 -5 -6 -102 69 -127 99 -58 68 -79 290 -65
670 10 268 6 306 -37 334 -27 18 -294 101 -455 141 -210 53 -410 73 -520 52z
m195 -27 c-11 -5 -31 -9 -45 -10 -40 -1 -105 -35 -153 -79 -24 -22 -61 -48
-81 -56 -34 -15 -40 -15 -62 0 -13 8 -24 11 -24 5 0 -18 46 -30 81 -20 18 5
34 8 36 6 2 -2 -2 -16 -8 -32 -33 -87 -26 -370 16 -619 32 -191 42 -222 80
-251 69 -52 698 -329 766 -337 31 -3 37 26 25 130 -4 46 -6 86 -4 89 8 8 38
-7 33 -16 -3 -5 1 -48 10 -96 30 -170 24 -183 -71 -150 -217 74 -742 312 -823
373 -75 57 -143 296 -172 601 -16 175 10 343 63 399 26 28 76 52 131 62 57 12
228 12 202 1z m235 -30 c171 -36 513 -142 538 -167 l23 -23 -7 -312 c-8 -343
1 -474 39 -588 22 -65 40 -84 151 -165 24 -17 27 -26 24 -62 l-3 -42 -120 84
c-185 131 -371 221 -680 330 -181 64 -257 87 -251 76 3 -4 40 -18 83 -31 136
-40 561 -205 582 -226 2 -2 -1 -9 -7 -16 -10 -13 -1 -144 13 -189 5 -13 2 -19
-10 -19 -33 0 -528 205 -659 273 -143 74 -139 67 -183 314 -22 127 -26 178
-27 363 l-1 215 28 58 c65 131 230 176 467 127z m1982 -395 c34 -14 83 -43
109 -65 26 -22 58 -44 70 -49 20 -7 18 -9 -18 -14 -46 -8 -59 -20 -67 -62 l-6
-30 15 33 c29 62 89 66 380 28 330 -44 401 -55 621 -101 521 -108 1003 -225
1199 -290 331 -110 430 -204 566 -541 117 -289 229 -662 229 -763 0 -26 -3
-31 -17 -27 -30 9 -298 45 -493 66 -257 27 -300 31 -270 20 14 -4 108 -16 210
-25 119 -11 189 -21 195 -29 6 -7 45 -21 87 -30 73 -16 128 -45 128 -68 0 -8
-28 -9 -88 -5 l-88 6 -14 -41 c-28 -81 -121 -112 -191 -65 -19 13 -38 36 -43
53 l-9 31 -166 6 c-91 3 -175 8 -186 12 -20 6 -20 6 0 -6 13 -8 76 -14 178
-17 l158 -5 13 -26 c30 -56 63 -76 126 -76 51 0 63 4 89 29 17 17 36 44 42 61
l12 31 86 -4 c47 -2 87 -5 88 -6 2 -2 80 -1622 84 -1766 l3 -65 -55 -7 c-104
-13 -436 -38 -699 -53 -250 -14 -1965 -75 -2115 -75 l-71 0 -18 829 c-13 611
-15 835 -7 850 27 49 29 49 692 66 343 8 638 18 654 21 60 12 91 64 130 215
20 77 59 155 84 168 13 7 60 1 172 -24 203 -45 209 -47 233 -78 19 -26 19 -29
3 -119 -9 -50 -15 -94 -12 -96 5 -5 9 13 35 158 30 164 22 151 84 144 67 -8
119 9 146 46 14 19 28 68 40 141 10 61 20 112 22 115 2 2 33 -5 69 -16 79 -24
87 -24 112 -2 20 16 20 16 13 -8 -4 -14 -9 -59 -12 -100 -5 -67 -4 -79 18
-110 47 -70 182 -104 257 -66 36 19 89 79 97 110 9 39 -82 309 -150 445 -31
60 -79 96 -108 80 -16 -8 -18 -6 -18 20 0 26 -6 33 -47 52 -94 42 -237 99
-250 99 -24 0 -13 15 32 43 100 64 175 147 175 196 0 33 -67 99 -134 130 -106
50 -378 122 -816 215 -513 109 -644 125 -713 90 -18 -9 -84 -47 -147 -84 -149
-88 -176 -131 -130 -208 28 -46 100 -88 182 -107 38 -9 163 -53 276 -99 114
-47 234 -92 267 -101 33 -10 61 -18 62 -19 1 0 -4 -26 -12 -56 -8 -38 -17 -54
-26 -51 -8 2 -59 16 -114 32 -146 43 -183 50 -253 50 -101 0 -130 -26 -192
-175 -17 -41 -22 -46 -36 -36 -8 7 -13 19 -10 27 5 12 -25 241 -39 300 -5 20
-2 21 38 16 33 -4 40 -3 30 7 -7 8 -52 14 -125 17 -138 6 -234 -12 -330 -61
-47 -23 -68 -30 -68 -21 0 24 69 62 175 97 26 9 94 13 200 13 93 0 143 3 120
7 -132 23 -334 -1 -434 -51 -22 -12 -42 -21 -45 -21 -5 0 19 105 45 192 25 85
54 109 175 142 l89 25 -56 0 c-89 1 -229 50 -341 118 -32 19 -63 31 -68 28
-20 -12 -137 122 -172 195 -18 38 -40 71 -48 74 -8 2 -27 7 -42 10 -35 8 -36
29 -3 61 32 33 77 32 157 0z m-544 -84 c57 -29 132 -146 132 -207 0 -13 4 -24
9 -24 11 0 -4 -82 -23 -118 -8 -15 -41 -50 -73 -78 -145 -127 -166 -268 -144
-969 46 -1480 123 -2662 192 -2950 22 -94 24 -183 5 -228 -18 -42 -59 -80 -83
-75 -15 3 -20 19 -28 109 -6 59 -16 114 -24 123 -17 21 -78 37 -110 29 -14 -3
-42 -16 -62 -29 l-37 -23 -12 47 c-42 168 -76 338 -89 444 -55 450 -136 2474
-119 2973 16 482 110 744 290 806 35 12 45 18 28 19 -39 0 -127 -56 -161 -103
-103 -138 -154 -353 -168 -697 -16 -378 40 -1983 94 -2715 22 -293 32 -364 81
-583 25 -108 46 -228 48 -267 2 -38 7 -89 11 -112 8 -43 7 -43 -23 -43 -62 0
-117 84 -168 259 -28 97 -79 323 -88 391 -18 143 -49 590 -71 1035 -2 50 -7
137 -10 195 -2 58 -7 159 -10 225 -60 1440 -53 1816 41 2142 51 180 148 329
252 391 104 60 239 74 320 33z m399 -7 c39 -5 44 -9 70 -61 33 -65 160 -206
179 -199 7 3 39 -10 70 -29 67 -41 179 -88 251 -106 l52 -12 -50 -17 c-27 -10
-61 -28 -76 -41 -28 -26 -27 -28 -9 37 5 18 -3 26 -56 53 -35 18 -83 48 -108
65 -61 43 -81 53 -45 21 17 -14 65 -47 108 -73 72 -44 92 -62 67 -62 -33 0
-234 122 -291 177 l-37 35 -171 -2 -170 -1 -6 28 c-15 71 -27 103 -55 142 -17
23 -35 39 -40 36 -5 -3 -11 -1 -15 4 -10 17 209 20 332 5z m1683 -88 c571 -55
596 -64 608 -230 4 -58 3 -68 -10 -64 -105 41 -1143 270 -1351 299 -155 21
-78 31 213 25 181 -3 365 -13 540 -30z m-1549 -162 c32 -34 168 -124 249 -164
36 -18 66 -34 68 -35 1 -1 -17 -83 -42 -181 -25 -99 -59 -242 -76 -319 -17
-77 -33 -147 -36 -155 -4 -8 -8 -26 -9 -40 -1 -14 -13 -75 -25 -137 l-23 -112
-26 14 c-78 40 -141 48 -419 52 l-274 5 4 321 c4 303 6 326 27 387 30 84 49
115 110 173 54 51 101 135 101 178 0 15 6 30 13 32 6 3 84 6 173 6 160 1 161
1 185 -25z m1334 -35 c673 -134 1015 -224 1120 -293 116 -77 93 -147 -90 -266
l-64 -41 -109 35 c-154 50 -335 100 -524 145 l-162 39 -42 -29 c-35 -24 -43
-35 -48 -73 -4 -25 -11 -48 -17 -51 -16 -10 -114 23 -332 111 -114 47 -236 90
-270 98 -78 16 -116 36 -156 81 -36 42 -40 81 -11 117 20 26 249 163 298 178
44 14 140 2 407 -51z m-2723 -476 c210 -142 187 -116 180 -202 -3 -44 -20
-119 -41 -185 -31 -95 -39 -111 -59 -114 -23 -4 -72 28 -112 71 -11 11 -20 18
-20 14 0 -14 -155 97 -202 144 -38 38 -73 103 -63 117 1 1 36 -10 77 -25 74
-27 77 -28 97 -78 27 -63 81 -158 87 -152 3 2 -8 27 -24 54 -26 44 -72 139
-72 149 0 2 6 4 14 4 8 0 17 7 20 16 10 26 6 135 -8 207 -7 37 -11 67 -8 67 2
0 63 -39 134 -87z m3138 8 c326 -80 621 -176 803 -261 55 -26 67 -36 67 -56 0
-28 -2 -29 -38 -10 -90 46 -655 231 -924 302 -137 36 -148 41 -148 62 0 17 4
22 18 18 9 -2 109 -27 222 -55z m-260 -42 c-20 -148 -52 -249 -80 -249 -17 0
-11 83 15 196 18 81 30 114 46 127 12 10 24 16 26 13 2 -2 -1 -42 -7 -87z
m-821 -1 c20 -112 31 -202 31 -267 0 -56 -2 -62 -17 -56 -98 40 -135 49 -233
53 -74 3 -125 -1 -174 -12 -38 -9 -71 -14 -74 -11 -6 6 37 212 50 237 26 52
207 117 329 117 l77 1 11 -62z m24 47 c10 -25 36 -217 39 -289 2 -43 -1 -70
-8 -73 -7 -2 -11 19 -13 59 -2 64 -25 246 -37 293 -7 27 10 36 19 10z m985
-45 c279 -77 653 -199 861 -281 69 -27 81 -35 81 -55 0 -30 -5 -30 -71 0 -164
71 -726 252 -961 308 -67 16 -88 25 -88 38 0 18 9 30 22 30 5 0 75 -18 156
-40z m-80 -41 c49 -12 53 -14 48 -38 -3 -14 -8 -45 -11 -69 -7 -41 -9 -43 -32
-37 -58 14 -84 13 -35 -2 54 -17 67 -38 37 -63 -17 -14 -20 -40 -5 -40 9 0 45
50 53 73 3 11 710 -198 735 -218 1 -1 -11 -28 -28 -60 -31 -59 -33 -78 -5 -55
28 23 56 89 70 162 7 38 15 72 19 75 3 3 41 -9 86 -27 91 -37 92 -39 65 -143
-21 -81 -58 -137 -91 -137 -14 0 -101 25 -194 55 -193 64 -234 69 -262 36 -24
-30 -64 -165 -79 -267 l-12 -82 -67 19 c-70 19 -163 49 -168 54 -2 2 5 20 16
42 24 47 57 157 72 242 21 117 -5 140 -237 216 l-143 46 14 27 c18 35 32 84
46 155 11 53 14 58 33 53 12 -3 46 -11 75 -17z m288 -98 c-32 -127 -24 -119
-102 -97 -27 8 -67 19 -90 25 l-41 11 9 57 c5 32 10 63 13 69 2 8 36 2 109
-19 84 -24 105 -34 102 -46z m-672 -8 c67 -19 129 -37 139 -40 11 -3 17 -15
17 -32 0 -15 6 -34 13 -43 6 -8 80 -37 162 -63 158 -50 213 -73 235 -100 16
-19 2 -133 -30 -237 l-21 -68 -68 0 c-75 0 -159 -22 -264 -70 l-67 -30 -192 0
c-106 0 -309 -5 -452 -11 -142 -5 -261 -8 -264 -5 -2 3 4 17 14 32 67 94 68
86 -16 274 -33 74 -60 142 -60 150 0 8 11 28 24 45 l24 29 81 -12 c45 -6 108
-23 139 -37 77 -34 121 -30 138 11 7 17 19 34 27 37 7 3 22 27 32 54 30 79 66
134 99 149 45 21 147 9 290 -33z m843 -29 c65 -20 121 -39 124 -43 7 -6 -17
-110 -26 -119 -5 -6 -256 67 -267 77 -11 11 25 132 39 127 7 -3 65 -21 130
-42z m262 -87 c51 -18 92 -37 92 -40 -2 -36 -15 -108 -21 -112 -8 -5 -190 53
-202 64 -8 7 22 121 32 121 4 0 49 -15 99 -33z m-1756 -32 c32 -8 75 -24 96
-34 29 -15 41 -17 50 -8 8 8 11 7 11 -6 0 -24 -23 -21 -99 10 -90 36 -252 43
-358 15 -40 -10 -73 -15 -73 -10 0 38 265 61 373 33z m2165 -29 c50 -58 189
-436 176 -480 -12 -39 -45 -76 -87 -97 -33 -17 -53 -20 -104 -16 -75 6 -122
31 -145 77 -18 36 -22 114 -8 160 4 16 7 -2 6 -50 -1 -123 42 -170 156 -170
92 0 176 67 162 129 -30 126 -139 399 -175 437 -23 24 -49 32 -49 14 0 -5 6
-7 14 -4 9 4 24 -8 40 -33 29 -43 102 -228 139 -350 25 -80 25 -82 6 -112 -23
-39 -75 -71 -113 -71 l-28 0 30 28 c41 39 47 69 27 139 -23 82 -90 264 -115
312 -19 39 -27 101 -13 114 16 17 53 5 81 -27z m-3938 -151 c0 -144 0 -145
-23 -145 -12 0 -33 -7 -46 -16 -22 -16 -23 -16 -18 2 4 11 20 73 36 139 39
153 43 165 47 165 2 0 4 -65 4 -145z m1473 3 c-136 -184 -136 -184 -128 -133
16 101 37 202 45 221 9 23 94 51 157 53 l32 1 -106 -142z m136 -83 c33 -77 61
-151 61 -164 0 -13 -13 -40 -28 -60 -16 -20 -32 -44 -35 -53 -5 -15 -18 -18
-68 -18 -98 0 -163 48 -189 140 -8 29 -2 40 92 165 56 75 102 134 103 133 1
-2 30 -66 64 -143z m2326 -99 c41 -120 43 -131 29 -157 -31 -60 -85 -75 -130
-36 -39 34 -42 103 -13 285 l23 147 24 -55 c13 -30 44 -113 67 -184z m-4165
167 c0 -12 -8 -14 -37 -9 -21 3 -48 6 -60 6 -13 0 -23 6 -23 13 0 8 17 11 60
9 46 -3 60 -7 60 -19z m148 -8 c5 -4 -48 -207 -72 -275 -59 -167 -131 -313
-156 -317 -41 -8 -40 9 20 262 33 138 65 271 71 296 l11 47 61 -5 c34 -3 63
-7 65 -8z m-204 -11 c50 -7 53 -13 36 -75 l-10 -36 -60 10 c-64 10 -65 12 -49
70 11 40 12 40 83 31z m3711 -55 c55 -17 103 -33 107 -35 16 -10 -45 -217 -73
-245 -34 -34 -182 -19 -227 24 -21 19 -23 28 -18 67 8 60 41 165 61 196 20 31
30 30 150 -7z m-2235 -2 c101 -30 130 -47 130 -78 l0 -28 -55 25 c-90 42 -186
53 -437 54 -214 0 -228 1 -228 18 0 10 3 22 8 26 4 5 124 6 267 3 196 -3 273
-8 315 -20z m-65 -58 c39 -6 97 -24 130 -39 55 -26 61 -33 77 -78 11 -31 33
-63 57 -85 l39 -35 -71 -6 c-40 -3 -162 -13 -272 -22 -110 -8 -258 -21 -330
-29 -71 -8 -132 -12 -135 -9 -3 3 -6 75 -8 159 l-3 154 103 4 c140 5 328 -2
413 -14z m-1394 -5 c6 -3 -19 -123 -27 -133 -5 -5 -97 20 -107 29 -5 5 -3 34
4 65 l13 57 55 -7 c31 -4 59 -9 62 -11z m274 -186 c10 -245 18 -222 -96 -261
-118 -41 -179 -76 -242 -139 -36 -36 -56 -48 -77 -48 -17 0 -30 4 -30 9 0 6
41 40 90 77 112 83 291 284 252 284 -5 0 -15 -15 -24 -32 -17 -35 -138 -172
-145 -164 -2 2 12 36 31 75 20 39 50 106 67 148 17 43 34 83 38 88 4 6 15 31
25 58 19 50 47 77 82 77 21 0 22 -4 29 -172z m3525 28 c-20 -100 -73 -136
-175 -120 -65 9 -56 25 10 18 73 -9 109 7 134 60 12 23 24 56 27 74 4 18 9 31
11 28 3 -2 0 -30 -7 -60z m-3874 23 c49 -13 49 -12 33 -73 l-11 -43 -54 16
c-29 9 -55 19 -58 22 -3 2 0 26 6 52 8 37 13 47 25 43 9 -4 35 -11 59 -17z
m3264 2 c0 -5 -31 -11 -69 -13 -50 -2 -75 -9 -90 -22 -12 -11 -21 -22 -21 -26
0 -4 24 -18 53 -30 28 -12 54 -24 56 -26 2 -1 -11 -20 -28 -41 -17 -21 -31
-43 -31 -50 0 -6 -4 -14 -9 -17 -5 -4 -7 11 -4 33 11 78 2 88 -87 107 l-80 17
43 20 c92 41 267 73 267 48z m-10 -29 c0 -4 -15 -22 -33 -40 l-33 -32 -42 17
c-49 21 -53 37 -14 51 33 13 122 15 122 4z m44 -74 c-14 -26 -20 -29 -47 -24
-43 9 -44 12 -13 45 24 25 32 28 52 19 22 -10 22 -12 8 -40z m329 -8 c20 0 21
-8 6 -83 l-11 -56 -36 35 c-30 29 -36 42 -40 90 l-5 55 34 -20 c19 -12 42 -21
52 -21z m-553 5 l35 -12 -2 -74 c-3 -97 -27 -202 -61 -264 -23 -43 -32 -50
-67 -57 -22 -4 -321 -14 -664 -23 -674 -16 -650 -14 -687 -71 -16 -23 -16 -82
0 -852 10 -455 19 -832 21 -837 2 -9 1689 40 2010 59 61 3 191 11 290 16 167
10 443 31 595 46 81 8 195 60 256 116 24 22 44 37 44 33 0 -13 -100 -151 -162
-222 -226 -259 -565 -436 -929 -486 l-35 -5 -3 116 c-1 65 -6 121 -10 125 -5
5 -55 4 -112 -2 l-104 -10 108 4 107 5 0 -25 c0 -24 -2 -25 -65 -25 -124 0
-155 -37 -155 -180 0 -49 -1 -90 -2 -90 -2 -1 -123 -9 -271 -20 -147 -10 -271
-21 -275 -24 -5 -3 -53 -14 -109 -25 -216 -44 -501 -46 -694 -3 -74 16 -109
17 -294 11 -203 -8 -470 -23 -606 -35 l-67 -6 -7 53 c-4 30 -11 64 -16 77 -24
63 -65 432 -94 842 -30 433 -85 1526 -85 1695 l0 61 123 12 c462 47 887 71
1378 79 l416 6 36 -60 c48 -80 85 -163 102 -232 8 -33 14 -45 14 -30 2 48 -68
217 -120 291 -11 14 -19 28 -19 31 0 18 121 12 180 -8z m349 1 c83 -24 101
-36 101 -67 0 -14 -14 -13 -112 8 -62 13 -114 25 -116 28 -5 5 29 55 37 55 3
0 44 -11 90 -24z m-3412 -21 c9 -3 8 -17 -2 -55 -8 -29 -16 -54 -19 -57 -3 -3
-30 5 -61 17 -41 17 -54 27 -51 39 3 9 8 30 12 46 10 45 11 45 62 28 26 -8 52
-16 59 -18z m4465 -95 c79 -12 163 -27 188 -34 25 -7 70 -21 100 -29 100 -30
155 -96 178 -217 7 -31 16 -313 22 -650 l12 -595 -35 -83 c-50 -116 -80 -164
-134 -212 -49 -43 -180 -116 -191 -106 -3 4 -22 365 -43 804 -20 438 -40 847
-43 908 l-7 111 88 -14 c130 -20 176 -38 218 -84 44 -49 55 -76 55 -140 0 -64
-18 -107 -66 -154 -22 -21 -30 -33 -19 -27 92 48 127 196 68 291 -47 75 -97
100 -238 122 -109 16 -113 18 -120 39 -8 27 -34 40 -130 66 -101 28 -82 29 97
4z m-4497 -30 c3 0 5 -11 5 -25 0 -14 -5 -25 -10 -25 -12 0 -110 48 -110 54 0
3 3 11 6 20 5 13 12 13 55 -4 27 -11 52 -20 54 -20z m384 -246 l1 -91 -104 28
c-57 15 -137 32 -177 39 -110 18 -108 15 -59 65 51 52 136 99 245 136 l80 26
6 -56 c4 -31 7 -97 8 -147z m5045 -422 c3 -37 6 -113 6 -169 l0 -103 -202
-273 -203 -273 -6 45 c-3 25 -9 280 -13 566 -7 476 -13 616 -33 685 -4 17 68
-48 219 -193 l225 -218 7 -67z m-5469 371 c-38 -148 -52 -412 -36 -688 33
-577 120 -1098 233 -1389 30 -76 39 -88 154 -204 l122 -122 -61 32 c-41 22
-97 67 -163 133 -92 91 -103 107 -132 181 -82 213 -164 646 -208 1109 -22 231
-25 724 -5 835 20 115 34 140 72 140 29 0 31 -2 24 -27z m170 -3 c191 -42 255
-62 255 -80 0 -13 -11 -19 -41 -23 -115 -15 -252 -127 -312 -254 -30 -64 -32
-74 -32 -184 0 -113 1 -117 37 -190 66 -134 183 -224 325 -251 62 -11 85 -31
68 -58 -4 -6 -72 -10 -176 -10 -149 0 -169 -2 -169 -16 0 -15 17 -16 175 -9
l175 7 0 -25 c0 -22 -8 -28 -49 -42 -66 -22 -160 -83 -198 -130 -157 -190
-148 -441 21 -611 71 -70 147 -111 239 -127 l64 -11 28 -120 c15 -67 40 -161
56 -211 15 -49 27 -91 25 -93 -8 -8 -119 28 -159 51 -60 36 -251 234 -272 282
-115 269 -211 814 -246 1390 -17 294 -6 553 32 698 12 45 22 46 154 17z m-363
-126 l70 -16 -6 -30 c-3 -17 -6 -37 -6 -45 0 -13 -22 3 -134 99 -14 11 -5 10
76 -8z m-3559 -1 c-7 -2 -19 -2 -25 0 -7 3 -2 5 12 5 14 0 19 -2 13 -5z m852
-5 c2 -2 5 -12 7 -23 2 -14 -2 -20 -14 -19 -10 0 -38 1 -63 2 -42 2 -45 4 -45
28 0 26 1 27 56 21 31 -3 57 -7 59 -9z m3333 -46 c3 -52 3 -53 -23 -46 -23 6
-35 -1 -82 -47 -30 -30 -81 -84 -114 -121 l-59 -66 36 -153 c34 -146 43 -168
71 -169 6 0 23 -4 37 -10 l25 -9 -16 -48 c-9 -26 -19 -52 -24 -57 -11 -13 -84
39 -124 89 -80 98 -116 224 -97 334 29 163 135 290 284 342 76 26 82 23 86
-39z m-4940 32 c6 -2 12 -13 12 -25 0 -19 -4 -21 -31 -15 -17 3 -44 6 -60 6
-24 0 -29 4 -29 25 0 24 2 24 48 19 26 -3 53 -7 60 -10z m830 9 c-10 -2 -26
-2 -35 0 -10 3 -2 5 17 5 19 0 27 -2 18 -5z m1571 -9 c8 -7 -64 -2 -89 6 -16
6 -6 7 30 3 30 -3 57 -7 59 -9z m751 7 c15 -4 26 -15 28 -29 3 -20 0 -21 -50
-16 -72 8 -78 10 -78 34 0 17 6 20 38 19 20 -1 48 -4 62 -8z m-4037 -8 c-7 -2
-21 -2 -30 0 -10 3 -4 5 12 5 17 0 24 -2 18 -5z m1509 -40 c8 -10 -1 -13 -38
-13 l-49 1 35 31 c32 29 35 30 39 13 2 -11 8 -26 13 -32z m201 37 c24 0 28 -4
25 -22 -3 -21 -9 -23 -72 -26 -60 -3 -68 -1 -62 13 3 9 6 24 6 32 0 12 8 14
38 9 20 -3 50 -6 65 -6z m455 -5 c2 -1 -5 -19 -14 -39 -17 -34 -18 -35 -31
-16 -13 18 -26 20 -140 20 -124 0 -126 0 -108 20 12 13 33 20 69 22 49 3 218
-2 224 -7z m96 0 c4 -11 -2 -15 -22 -15 -26 1 -26 1 -8 15 24 18 23 18 30 0z
m2585 -1 c9 -8 -75 -2 -94 6 -12 5 1 6 35 3 30 -3 57 -7 59 -9z m-4776 -1 c-7
-2 -21 -2 -30 0 -10 3 -4 5 12 5 17 0 24 -2 18 -5z m433 -1 c8 -5 7 -17 -3
-41 -13 -30 -15 -32 -26 -17 -11 15 -30 17 -140 14 -70 -2 -127 0 -127 3 0 15
38 38 70 42 62 7 215 7 226 -1z m788 2 c44 -6 46 -8 31 -24 -9 -10 -19 -43
-22 -73 l-6 -55 -48 -4 c-29 -2 -50 1 -53 8 -5 12 -129 6 -134 -7 -5 -13 -66
-11 -80 3 -15 15 -16 54 -2 63 6 4 10 -5 10 -19 0 -19 7 -27 26 -32 35 -9 59
15 50 50 -5 21 -12 26 -38 26 l-32 0 29 29 c29 31 48 36 166 39 31 1 77 -1
103 -4z m1629 0 c12 -4 11 -11 -4 -42 -11 -20 -19 -53 -19 -74 l0 -38 -50 0
c-27 0 -50 5 -50 10 0 6 -30 10 -70 10 -40 0 -70 -4 -70 -10 0 -5 -18 -10 -40
-10 -34 0 -41 4 -46 25 -3 14 -3 33 1 42 7 15 9 12 14 -12 5 -25 11 -30 35
-30 36 0 56 27 40 53 -6 9 -23 17 -38 17 -34 -1 -33 7 5 39 29 25 36 26 154
26 68 0 130 -2 138 -6z m157 -46 c0 -5 -18 -8 -40 -8 -47 0 -50 11 -12 38 l27
20 12 -21 c7 -12 12 -25 13 -29z m191 42 c24 0 29 -4 29 -25 0 -24 -2 -25 -69
-25 l-69 0 11 31 c11 27 16 30 41 25 16 -3 41 -6 57 -6z m466 -5 c2 -1 -6 -18
-16 -39 -19 -35 -20 -36 -31 -17 -10 20 -19 21 -142 21 -126 0 -131 1 -115 17
21 22 100 30 217 25 47 -3 86 -5 87 -7z m93 0 c0 -9 -9 -15 -22 -15 -22 1 -23
1 -4 15 25 19 26 19 26 0z m-3759 -5 c12 0 19 -7 19 -19 0 -21 -34 -31 -102
-31 -33 0 -39 3 -34 16 3 9 6 23 6 31 0 13 8 15 46 9 26 -3 55 -6 65 -6z m589
-5 c0 -9 -9 -15 -21 -15 -18 0 -19 2 -9 15 7 8 16 15 21 15 5 0 9 -7 9 -15z
m3833 8 c4 -3 0 -18 -9 -31 -10 -15 -17 -48 -18 -79 l-1 -54 -50 7 c-27 3 -51
10 -53 15 -5 12 -132 11 -132 -1 0 -5 -18 -10 -40 -10 -29 0 -42 5 -50 20 -16
30 -5 53 45 99 l45 41 128 0 c71 0 132 -3 135 -7z m135 -18 c11 -24 11 -25
-28 -25 -46 0 -49 5 -17 31 29 24 32 24 45 -6z m195 15 c33 0 37 -3 37 -25 0
-24 -2 -25 -70 -25 -38 0 -70 2 -70 5 0 2 5 16 12 30 9 20 17 25 32 21 12 -3
38 -6 59 -6z m-4966 -25 c11 -24 10 -25 -30 -25 l-40 0 23 25 c29 31 32 31 47
0z m2427 0 c15 -11 36 -13 90 -8 70 6 71 6 54 -14 -33 -36 -13 -78 34 -71 30
4 38 53 11 74 -17 13 -17 13 3 14 26 0 34 -17 34 -71 l0 -39 -50 0 c-27 0 -50
5 -50 10 0 6 -28 10 -65 10 -37 0 -65 -4 -65 -10 0 -5 -20 -10 -45 -10 l-45 0
0 58 c0 32 3 62 7 65 12 12 67 7 87 -8z m164 8 c-16 -2 -40 -2 -55 0 -16 2 -3
4 27 4 30 0 43 -2 28 -4z m2742 -18 l23 -25 -34 0 c-19 0 -71 3 -117 7 -79 6
-82 7 -66 24 14 15 32 19 94 19 69 0 79 -3 100 -25z m-5916 -1 c12 -30 5 -34
-59 -34 -57 0 -65 2 -65 19 0 24 13 29 71 30 34 1 49 -3 53 -15z m430 -21 c-9
-20 -14 -56 -12 -80 3 -38 1 -43 -18 -43 -12 0 -36 -3 -53 -6 -24 -5 -31 -3
-31 10 0 18 -27 20 -93 9 -23 -3 -36 -10 -34 -18 4 -8 -53 -18 -197 -33 -110
-12 -289 -34 -396 -49 -108 -14 -208 -23 -223 -20 -31 8 -62 50 -51 69 6 9 10
5 14 -12 5 -19 12 -25 34 -25 37 0 56 27 39 54 -15 23 -9 26 79 36 54 6 56 5
51 -15 -3 -12 1 -28 11 -39 16 -18 14 -19 -48 -26 -61 -6 -87 -17 -69 -28 14
-8 128 12 131 22 2 6 10 11 18 11 22 0 49 49 35 63 -6 6 -11 16 -11 22 1 26
30 -33 30 -61 0 -27 3 -31 20 -27 17 4 19 11 13 49 -4 30 -2 44 6 44 6 0 11
-18 11 -45 0 -25 5 -45 10 -45 7 0 10 24 8 62 l-3 62 33 9 c23 7 39 6 56 -3
20 -10 36 -10 88 0 58 12 67 11 91 -5 29 -19 34 -34 15 -53 -18 -18 -36 -15
-48 7 -7 15 -6 23 6 35 8 9 11 16 6 16 -18 0 -34 -29 -27 -49 3 -12 17 -24 31
-27 46 -12 72 37 38 70 -14 15 -14 16 1 16 18 0 35 -38 35 -78 1 -24 2 -25 11
-9 6 10 7 31 4 47 -6 26 -4 30 14 30 17 0 20 -5 15 -27 -5 -29 18 -74 32 -61
4 4 1 14 -6 23 -17 21 -6 54 32 99 40 46 69 54 210 55 l107 1 -15 -37z m1171
27 c11 -5 16 -9 12 -9 -5 -1 -1 -8 8 -17 10 -11 15 -29 13 -53 -3 -35 -4 -36
-50 -39 -29 -2 -48 1 -48 7 0 14 -127 15 -135 1 -3 -5 -24 -10 -46 -10 l-40 0
3 58 3 57 38 3 c21 2 44 -2 51 -8 9 -7 39 -8 87 -4 l74 7 -18 -21 c-10 -11
-17 -31 -15 -44 2 -19 9 -23 38 -23 30 0 35 4 38 26 4 34 -28 61 -81 70 l-42
6 45 1 c25 0 54 -3 65 -8z m2975 -5 c9 -11 29 -14 89 -10 42 3 70 2 63 -1 -41
-19 -32 -84 11 -84 44 0 61 38 32 70 -14 16 -14 18 -1 23 19 7 36 -47 29 -87
-5 -23 -10 -26 -49 -26 -24 0 -44 5 -44 10 0 6 -30 10 -70 10 -40 0 -70 -4
-70 -10 0 -5 -20 -10 -45 -10 l-45 0 0 53 c0 29 5 58 12 65 17 17 73 15 88 -3z
m168 8 c-15 -2 -42 -2 -60 0 -18 2 -6 4 27 4 33 0 48 -2 33 -4z m-3548 -74 c0
-32 3 -39 20 -39 17 0 20 7 20 43 0 43 1 43 30 39 28 -4 30 -7 30 -47 l0 -42
-137 -6 c-75 -4 -164 -7 -199 -7 -62 0 -63 0 -69 31 -4 17 -4 33 -1 36 3 4 6
-1 6 -10 0 -25 35 -40 61 -26 17 9 20 17 16 45 l-6 34 75 0 c70 0 74 -1 64
-19 -7 -15 -5 -25 9 -42 16 -21 22 -22 45 -11 28 13 35 48 14 72 -11 12 -10
12 5 1 11 -9 17 -27 17 -52z m925 11 l0 -50 -37 0 -38 0 0 43 c0 52 4 57 44
57 31 0 31 -1 31 -50z m98 30 c17 -16 2 -45 -23 -45 -21 0 -25 5 -25 27 1 14
-3 24 -7 22 -12 -8 -10 -38 4 -52 34 -34 90 6 68 48 -11 20 -9 21 109 18 l121
-2 0 -48 0 -48 -49 0 c-35 0 -51 4 -55 15 -8 21 -133 18 -128 -2 1 -9 -12 -13
-43 -13 -39 0 -45 3 -51 25 -3 14 -3 37 0 51 6 23 10 25 39 19 18 -4 36 -11
40 -15z m537 0 c-22 -42 34 -82 68 -48 15 15 15 45 0 54 -8 5 -9 2 -5 -9 15
-40 -26 -64 -53 -31 -16 19 1 38 42 48 24 5 28 3 34 -19 3 -14 3 -36 0 -50 -5
-21 -12 -25 -45 -25 -26 0 -41 5 -45 15 -8 21 -133 18 -128 -2 1 -9 -11 -13
-36 -13 -32 0 -41 5 -51 26 -6 14 -8 31 -4 37 4 7 9 2 13 -13 10 -44 80 -35
80 11 0 10 -4 20 -8 23 -4 2 -8 -8 -7 -22 0 -22 -4 -27 -25 -27 -20 0 -25 5
-25 25 0 30 23 38 128 39 75 1 77 0 67 -19z m140 -30 c0 -27 -4 -50 -10 -50
-11 0 -13 42 -4 78 10 35 14 26 14 -28z m-2075 0 c12 -55 0 -70 -56 -70 -34 0
-48 4 -46 13 1 9 -15 11 -66 8 l-68 -3 6 25 c4 14 2 28 -4 31 -6 4 -11 12 -11
18 0 17 187 5 205 -13 13 -13 13 -17 1 -34 -12 -16 -18 -18 -33 -9 -10 7 -18
21 -17 32 0 12 -3 19 -8 16 -12 -8 -10 -38 4 -52 33 -33 91 6 69 47 -10 19 -5
34 10 26 4 -3 10 -19 14 -35z m349 18 c14 -22 -12 -52 -37 -42 -17 6 -23 44
-10 58 11 11 35 3 47 -16z m2031 -8 c0 -18 -6 -26 -23 -28 -13 -2 -25 3 -28
12 -10 26 4 48 28 44 17 -2 23 -10 23 -28z m80 -20 c1 -33 -2 -40 -18 -40 -13
0 -17 5 -13 16 3 9 6 29 6 45 0 19 4 27 13 24 6 -3 12 -23 12 -45z m100 20 c0
-18 -6 -26 -23 -28 -13 -2 -25 3 -28 12 -10 26 4 48 28 44 17 -2 23 -10 23
-28z m305 -15 c0 -38 -3 -45 -20 -45 -17 0 -20 7 -20 38 0 41 6 52 27 52 9 0
13 -14 13 -45z m40 25 c-22 -42 34 -82 68 -48 14 14 16 44 4 52 -4 2 -8 -8 -7
-22 0 -22 -4 -27 -25 -27 -20 0 -25 5 -25 25 0 30 23 38 128 39 75 1 77 0 65
-19 -24 -38 32 -79 68 -50 16 14 19 46 4 55 -6 4 -9 -3 -7 -16 3 -31 -28 -48
-49 -27 -22 22 -6 43 38 52 37 7 48 -4 48 -51 0 -33 0 -33 -49 -33 -28 0 -53
5 -56 10 -3 6 -33 10 -65 10 -32 0 -62 -4 -65 -10 -3 -5 -26 -10 -51 -10 l-44
0 0 45 c0 34 4 45 15 45 13 0 14 -4 5 -20z m594 -8 c-7 -34 14 -55 48 -50 20
3 23 9 22 40 -1 21 3 35 7 32 5 -3 9 -25 9 -50 l0 -44 -40 0 c-27 0 -43 5 -46
15 -9 22 -122 21 -130 0 -4 -11 -18 -15 -41 -13 -35 2 -53 21 -53 55 0 14 3
12 13 -7 17 -33 61 -39 77 -11 8 15 8 27 0 41 -10 19 -8 20 64 20 l76 0 -6
-28z m145 -18 c-4 -59 -19 -69 -19 -11 0 39 5 57 17 57 2 0 3 -21 2 -46z m823
34 c-21 -21 -14 -57 13 -70 22 -10 29 -9 46 9 18 17 19 24 9 43 -6 12 -10 23
-8 25 2 2 44 0 94 -5 49 -4 102 -6 117 -3 27 5 27 4 27 -46 l0 -51 -49 0 c-35
0 -51 4 -55 15 -8 21 -133 18 -128 -2 1 -9 -13 -13 -46 -13 -48 0 -48 0 -50
36 -4 48 6 74 26 74 12 0 13 -3 4 -12z m-5522 -12 c0 -7 -9 -16 -20 -19 -25
-6 -26 8 -2 22 22 13 22 13 22 -3z m760 5 c0 -6 -4 -13 -10 -16 -29 -18 9 -70
45 -61 15 4 25 1 28 -8 4 -11 -6 -15 -43 -18 -48 -3 -48 -3 -54 30 -5 37 8 82
24 82 5 0 10 -4 10 -9z m435 -21 c0 -18 -6 -26 -23 -28 -24 -4 -38 18 -28 44
3 9 15 14 28 12 17 -2 23 -10 23 -28z m640 0 c0 -18 -6 -26 -23 -28 -13 -2
-25 3 -28 12 -10 26 4 48 28 44 17 -2 23 -10 23 -28z m180 0 c0 -18 -6 -26
-23 -28 -13 -2 -25 3 -28 12 -10 26 4 48 28 44 17 -2 23 -10 23 -28z m2390 0
c0 -18 -6 -26 -23 -28 -13 -2 -25 3 -28 12 -10 26 4 48 28 44 17 -2 23 -10 23
-28z m210 0 c0 -18 -6 -26 -23 -28 -13 -2 -25 3 -28 12 -10 26 4 48 28 44 17
-2 23 -10 23 -28z m389 15 c8 -22 -4 -45 -24 -45 -28 0 -45 27 -30 45 7 8 20
15 30 15 10 0 20 -7 24 -15z m472 -35 c0 -42 -2 -50 -18 -50 -25 0 -26 74 0
89 9 6 17 11 17 11 0 0 0 -23 1 -50z m104 31 c7 -15 6 -24 -6 -36 -19 -18 -33
-16 -48 7 -7 12 -6 21 3 32 18 22 38 20 51 -3z m-4770 -6 c26 -31 -18 -71 -47
-43 -12 12 -13 20 -4 37 14 25 34 27 51 6z m1105 -25 c1 -30 -3 -40 -15 -40
-12 0 -16 10 -15 40 0 29 4 40 15 40 11 0 15 -11 15 -40z m834 9 c14 -41 14
-39 -9 -39 -16 0 -20 7 -20 35 0 44 14 45 29 4z m2326 11 c-3 -10 -1 -28 5
-40 9 -17 8 -20 -10 -20 -17 0 -20 6 -20 40 0 30 4 40 16 40 11 0 13 -6 9 -20z
m893 -23 c-2 -16 -10 -22 -28 -22 -28 0 -39 27 -20 50 18 21 52 1 48 -28z
m130 37 c17 -5 20 -9 11 -20 -6 -7 -8 -23 -4 -35 7 -22 6 -22 -59 -16 -54 5
-68 3 -73 -8 -3 -9 -18 -15 -37 -15 -26 0 -35 6 -45 27 -8 18 -9 29 -1 37 7 7
10 3 10 -12 0 -15 8 -24 25 -28 35 -9 58 13 51 48 -5 28 -5 28 47 28 28 0 62
-3 75 -6z m-5878 -10 c-34 -7 -110 -9 -110 -2 0 5 28 7 63 7 34 -1 55 -3 47
-5z m490 -28 c0 -19 3 -41 6 -50 5 -12 0 -16 -20 -16 -25 0 -26 3 -26 50 0 43
3 50 20 50 16 0 20 -7 20 -34z m3600 15 c0 -11 3 -26 6 -34 4 -11 0 -14 -13
-11 -15 4 -18 12 -15 35 5 32 22 40 22 10z m1860 4 c26 -31 -18 -71 -47 -43
-12 12 -13 20 -4 37 14 25 34 27 51 6z m25 -6 c4 -11 4 -31 1 -45 -5 -20 -12
-24 -46 -24 -22 0 -40 5 -40 10 0 6 10 8 24 4 39 -10 72 36 44 64 -9 9 -9 12
-1 12 7 0 15 -9 18 -21z m581 13 c6 -4 14 -38 17 -77 5 -65 2 -83 -50 -250
-30 -99 -56 -181 -58 -183 -2 -2 -21 2 -42 8 l-39 12 -33 144 -33 144 98 104
c95 100 116 115 140 98z m-6879 -34 c-15 -44 -15 -44 -30 -25 -11 16 -20 16
-126 2 -63 -8 -126 -15 -140 -15 -25 0 -25 0 -6 20 24 23 147 48 247 49 l66 1
-11 -32z m1209 -3 c10 -33 10 -35 -12 -35 -20 0 -22 5 -21 35 3 45 19 45 33 0z
m4761 19 c-3 -3 -2 -17 3 -30 8 -20 6 -24 -10 -24 -16 0 -20 7 -20 30 0 21 5
30 17 30 9 0 14 -3 10 -6z m-6027 -73 c14 -28 -13 -55 -41 -41 -22 12 -25 30
-7 48 18 18 36 15 48 -7z m1088 12 c-10 -2 -28 -2 -40 0 -13 2 -5 4 17 4 22 1
32 -1 23 -4z m4097 -3 c418 -5 855 -12 971 -16 l211 -7 8 -184 c4 -101 5 -186
3 -187 -1 -2 -36 1 -77 6 -40 5 -75 7 -78 5 -2 -2 36 -46 85 -98 l89 -94 7
-85 c7 -94 33 -312 41 -348 5 -19 2 -22 -17 -18 -13 3 -54 8 -92 11 -58 6 -68
5 -63 -8 4 -11 -6 -16 -41 -21 -138 -17 -1571 -28 -3047 -23 -1950 7 -2243 15
-2854 83 -422 46 -597 76 -673 115 -63 32 -144 115 -175 178 -25 50 -28 67
-28 161 0 96 3 110 29 165 57 116 161 190 306 219 239 47 865 112 1275 132
457 22 2841 30 4120 14z m-5390 -50 c0 -18 -6 -26 -23 -28 -13 -2 -25 3 -28
12 -10 26 4 48 28 44 17 -2 23 -10 23 -28z m-268 -23 c10 -7 3 -21 -26 -59
-22 -27 -43 -49 -46 -49 -3 0 -16 12 -27 26 l-21 26 38 39 c37 38 52 41 82 17z
m62 -43 c17 -14 31 -33 31 -42 0 -22 -40 -62 -61 -62 -22 0 -81 -74 -85 -106
-2 -24 -29 -74 -40 -74 -3 0 -18 7 -33 15 -35 17 -47 41 -58 113 -5 32 -4 33
23 26 39 -9 39 -9 14 -41 -12 -16 -17 -29 -11 -31 6 -2 11 -10 11 -17 0 -23
37 -38 60 -25 36 19 20 80 -22 80 -14 0 -8 13 29 61 l46 61 17 -22 c19 -26 57
-24 74 3 14 22 -3 51 -33 55 -21 3 -27 13 -14 25 11 12 20 8 52 -19z m135 3
l25 -23 -42 -13 c-23 -6 -48 -15 -56 -18 -10 -4 -12 -1 -8 10 3 9 2 19 -4 23
-6 3 5 14 23 24 18 10 34 18 35 19 1 0 13 -9 27 -22z m-150 -32 c8 -22 -4 -45
-24 -45 -23 0 -42 24 -34 44 8 20 50 21 58 1z m7395 -227 l1 -97 -46 14 c-25
7 -47 15 -49 17 -2 2 15 63 38 137 l42 133 7 -54 c3 -29 6 -97 7 -150z m-7525
59 c9 -14 7 -21 -7 -32 -25 -18 -47 -9 -47 19 0 40 32 48 54 13z m-52 -86 c17
-11 35 -18 40 -15 4 3 8 -1 8 -9 0 -11 -14 -16 -47 -19 -27 -3 -49 -4 -51 -3
-3 3 10 65 14 65 2 0 18 -9 36 -19z m6996 -76 l3 -50 -50 50 c-28 27 -51 52
-51 55 0 3 21 3 48 0 l47 -5 3 -50z m-7025 10 l67 7 0 -46 c0 -25 -4 -46 -10
-46 -5 0 -10 -12 -9 -27 1 -42 24 -108 36 -106 6 1 17 -11 23 -28 12 -28 11
-33 -12 -56 -20 -19 -31 -23 -49 -17 l-24 8 24 5 c54 14 52 73 -2 79 -21 3
-30 -3 -39 -23 -9 -20 -9 -28 1 -38 9 -9 11 -6 9 12 -4 32 26 51 47 30 39 -39
-31 -70 -85 -38 -16 10 -33 26 -39 36 -12 23 -46 161 -55 220 l-6 43 27 -11
c17 -6 55 -8 96 -4z m7562 -17 c25 -7 45 -17 45 -24 0 -6 -10 -35 -22 -63 -23
-56 -25 -57 -93 -31 -29 11 -30 21 -9 83 18 52 16 52 79 35z m51 -136 c-11
-10 -15 4 -8 28 l7 25 3 -23 c2 -13 1 -26 -2 -30z m-7466 -149 c-1 -17 -58
-64 -65 -54 -3 6 6 22 22 36 29 25 43 31 43 18z m51 -59 c39 -41 109 -85 141
-88 13 -2 38 -6 55 -10 l33 -7 -24 -48 c-14 -26 -31 -53 -39 -59 -21 -18 -62
3 -87 45 -10 18 -27 33 -37 33 -10 0 -36 12 -58 25 -30 19 -35 25 -20 25 44 0
59 44 26 74 -15 14 -24 15 -39 7 -26 -14 -35 -40 -20 -59 11 -13 10 -15 -5 -9
-12 5 -16 3 -11 -5 4 -6 3 -8 -4 -5 -5 4 -9 15 -7 25 2 9 4 22 4 28 1 14 40
64 50 64 4 0 23 -16 42 -36z m7433 -15 c9 -47 7 -59 -7 -59 -8 0 -63 -53 -124
-119 l-110 -118 36 -156 36 -156 48 -12 c26 -6 47 -14 47 -17 0 -21 -36 -112
-44 -112 -17 0 -94 65 -128 107 -17 21 -42 63 -57 93 -23 49 -26 68 -26 165 0
103 2 114 31 176 49 104 130 182 229 222 56 22 62 21 69 -14z m-7439 -24 c0
-11 -10 -24 -23 -31 -35 -17 -35 -20 2 -43 l34 -22 -23 -25 -24 -26 -45 32
c-47 32 -50 37 -40 64 5 13 15 10 56 -20 27 -20 51 -34 54 -31 3 2 -11 15 -31
27 -27 17 -33 25 -23 31 7 5 12 21 10 39 -3 29 -2 31 25 28 20 -2 28 -8 28
-23z m7454 -244 c1 -72 -5 -102 -39 -212 l-40 -128 -42 12 -41 12 -33 140 -32
140 41 45 c23 25 71 76 107 113 l65 68 7 -53 c3 -29 6 -91 7 -137z m-7169 152
c0 -44 -11 -60 -36 -55 -28 5 -30 14 -8 47 19 29 44 33 44 8z m113 -2 c10 -4
17 -11 15 -16 -3 -10 112 -36 125 -28 13 8 -3 23 -25 23 -12 0 -19 2 -16 5 3
3 47 0 97 -6 71 -10 91 -16 86 -27 -3 -7 -5 -22 -5 -33 0 -31 -27 -22 -33 11
-9 41 -28 39 -21 -2 4 -28 3 -29 -5 -11 -15 34 -44 45 -70 26 -17 -12 -21 -21
-16 -40 6 -25 4 -25 -27 -19 -18 4 -52 9 -76 13 -33 4 -40 9 -31 19 15 18 8
55 -13 68 -27 17 -53 -5 -52 -43 1 -17 -2 -28 -7 -25 -10 6 -12 54 -3 78 6 17
45 20 77 7z m-8 -51 c0 -18 -6 -26 -23 -28 -24 -4 -38 18 -28 44 3 9 15 14 28
12 17 -2 23 -10 23 -28z m405 -4 c0 -7 10 -16 23 -20 37 -10 115 -7 119 5 3 8
18 9 46 4 37 -6 42 -10 42 -33 0 -48 -11 -72 -33 -72 -19 0 -19 1 -4 18 21 23
22 46 2 62 -34 28 -97 -24 -65 -54 10 -8 12 -7 7 6 -14 41 44 63 60 22 9 -24
-18 -40 -69 -39 -141 3 -151 4 -138 19 16 20 9 56 -12 70 -27 17 -53 -5 -53
-43 0 -18 -5 -31 -12 -31 -14 0 -19 81 -6 93 3 4 26 7 50 7 30 0 43 -4 43 -14z
m-466 -49 c11 -3 70 -13 129 -23 107 -18 108 -18 85 -36 -19 -15 -34 -17 -82
-12 -64 7 -203 38 -213 47 -3 3 5 19 18 35 22 27 25 28 33 11 4 -9 18 -20 30
-22z m270 27 c7 -19 -10 -44 -29 -44 -19 0 -38 28 -31 45 7 20 52 19 60 -1z
m-490 0 c23 -9 20 -24 -4 -24 -11 0 -20 7 -20 15 0 17 2 18 24 9z m671 -24 c0
-18 -6 -26 -23 -28 -24 -4 -38 18 -28 44 3 9 15 14 28 12 17 -2 23 -10 23 -28z
m295 -15 c0 -37 -3 -45 -19 -45 -15 0 -18 7 -17 45 1 36 5 45 19 45 14 0 17
-9 17 -45z m124 26 c8 -13 119 -19 137 -8 11 7 28 7 50 1 52 -15 51 -46 -3
-101 l-43 -45 -137 4 c-76 3 -140 7 -143 10 -4 3 3 21 14 39 12 19 21 51 21
72 l0 37 49 0 c28 0 52 -4 55 -9z m5667 -1 c31 0 34 -6 44 -86 l7 -52 -71 69
c-39 37 -71 71 -71 75 0 3 14 4 31 0 17 -3 44 -6 60 -6z m-5395 -26 c-3 -9 -6
-27 -6 -41 0 -40 -23 -21 -24 20 -1 30 3 37 18 37 12 0 16 -5 12 -16z m114 7
c0 -13 121 -24 133 -12 6 6 28 11 49 11 l38 0 0 -53 c0 -29 -5 -58 -12 -65
-17 -17 -58 -15 -80 5 -15 13 -35 16 -90 15 -71 -3 -72 -3 -54 17 40 44 -13
102 -55 60 -19 -19 -19 -22 -4 -46 16 -23 16 -25 -2 -21 -18 3 -30 55 -19 84
6 15 96 20 96 5z m5124 -6 c-5 -12 2 -15 33 -15 31 0 46 -7 72 -34 l33 -34
-75 -4 c-68 -3 -74 -1 -66 14 14 26 11 36 -17 54 -24 16 -26 16 -46 -4 -19
-19 -20 -24 -9 -48 11 -24 10 -26 -3 -14 -10 8 -16 29 -16 56 l0 44 50 0 c40
0 48 -3 44 -15z m-4814 -27 c0 -45 -10 -57 -43 -51 -24 5 -27 10 -27 44 0 38
1 39 35 39 33 0 35 -2 35 -32z m124 17 c6 -17 121 -22 131 -5 9 14 68 13 83
-2 7 -7 12 -21 12 -32 -1 -18 -3 -17 -16 7 -12 22 -21 27 -41 25 -35 -4 -52
-32 -35 -58 12 -19 10 -20 -68 -20 -78 0 -80 1 -68 20 17 26 0 54 -35 58 -33
4 -53 -28 -37 -58 6 -11 8 -20 6 -20 -14 0 -27 44 -21 71 6 26 11 29 45 29 24
0 40 -5 44 -15z m4306 0 c0 -12 14 -15 65 -15 63 0 65 -1 60 -23 -4 -15 0 -29
14 -41 38 -35 86 8 61 55 -9 17 -18 20 -41 15 -22 -4 -29 -2 -29 9 0 11 12 15
45 15 l46 0 -3 -62 -3 -63 -38 -3 c-21 -2 -44 1 -51 7 -8 7 -42 9 -92 5 -75
-6 -78 -5 -56 10 40 30 19 81 -30 74 -30 -4 -38 -56 -12 -75 17 -12 17 -13 -3
-13 -25 0 -33 18 -33 70 0 42 7 47 68 49 22 1 32 -4 32 -14z m252 -36 c-1 -22
-3 -44 -6 -47 -3 -3 -6 19 -6 48 0 29 3 51 6 47 4 -3 6 -25 6 -48z m-4292 11
c0 -16 -4 -30 -10 -30 -5 0 -10 3 -10 8 0 4 -3 17 -6 30 -5 16 -2 22 10 22 11
0 16 -9 16 -30z m120 20 c0 -6 30 -10 70 -10 43 0 70 4 70 11 0 6 17 9 43 7
l42 -3 0 -45 c0 -37 -4 -45 -20 -49 -17 -3 -18 -1 -6 13 8 9 11 26 7 41 -6 22
-11 26 -39 23 -25 -2 -33 -8 -35 -26 -2 -13 2 -30 8 -38 11 -12 0 -14 -76 -14
-68 0 -85 3 -76 12 17 17 15 53 -3 68 -38 32 -87 -33 -52 -69 10 -10 8 -12 -8
-9 -16 2 -21 12 -23 51 l-3 47 50 0 c28 0 51 -4 51 -10z m294 -38 c-1 -49 -6
-56 -31 -48 -14 5 -18 15 -16 48 1 24 2 44 2 46 1 2 11 2 24 0 19 -3 22 -9 21
-46z m126 27 c0 -12 117 -11 125 1 3 6 24 10 45 10 46 0 68 -26 50 -60 -13
-25 -20 -26 -13 -1 5 20 -20 51 -42 51 -18 0 -45 -27 -45 -45 0 -22 31 -47 51
-42 29 8 23 -6 -13 -34 -31 -23 -41 -24 -160 -24 -70 0 -129 3 -133 6 -3 3 2
19 10 36 8 17 17 50 19 74 2 24 4 44 5 44 42 0 101 -9 101 -16z m2714 6 c-5
-12 6 -15 64 -15 69 0 69 0 64 -25 -2 -14 1 -32 8 -40 11 -13 2 -15 -71 -15
-48 0 -95 6 -109 13 -33 16 -33 51 -1 55 29 4 43 -15 30 -40 -6 -11 -6 -18 0
-18 13 0 22 27 15 45 -4 9 -15 20 -26 26 -37 20 -76 -39 -46 -69 9 -9 8 -12
-4 -12 -19 0 -28 20 -28 65 0 34 0 34 53 38 28 2 53 4 54 5 1 1 0 -5 -3 -13z
m224 -37 c-2 -44 -6 -53 -23 -56 -16 -3 -18 -1 -7 9 30 31 -2 88 -41 73 -8 -3
-17 2 -20 10 -5 13 2 16 44 16 l50 0 -3 -52z m225 45 c-79 -6 -65 -24 15 -21
47 2 66 7 65 16 -2 8 12 12 44 12 25 0 43 -3 40 -7 -4 -3 -2 -12 4 -19 16 -20
4 -53 -36 -97 -32 -37 -38 -40 -116 -49 -46 -5 -111 -7 -145 -3 l-61 6 18 37
c20 39 25 107 9 117 -6 4 -10 -8 -10 -29 0 -25 -4 -36 -15 -36 -9 0 -15 9 -15
24 0 13 -3 31 -6 40 -5 14 9 16 127 14 74 -1 110 -3 82 -5z m219 -38 c-3 -30
-9 -45 -18 -45 -10 0 -13 7 -8 24 3 13 1 34 -6 45 -9 18 -8 21 12 21 21 0 23
-4 20 -45z m-4635 19 c3 -8 -1 -23 -10 -31 -21 -21 -47 -9 -47 22 0 20 5 25
25 25 14 0 28 -7 32 -16z m1523 -24 c0 -34 -3 -40 -21 -40 -17 0 -19 3 -10 14
8 9 8 21 1 40 -8 23 -7 26 10 26 17 0 20 -7 20 -40z m115 30 c3 -5 33 -10 65
-10 32 0 62 5 65 10 3 6 26 10 51 10 l44 0 0 -44 c0 -24 -3 -51 -6 -60 -8 -20
-69 -21 -104 -2 -16 9 -32 11 -46 5 -13 -4 -39 -5 -59 -2 -33 5 -34 7 -20 23
20 22 19 33 -5 55 -17 15 -24 16 -45 7 -14 -6 -25 -18 -25 -26 0 -22 11 -46
21 -46 5 0 4 9 -3 19 -9 15 -9 23 1 35 17 20 26 20 45 1 19 -20 12 -39 -20
-54 -39 -17 -51 -13 -57 18 -11 54 0 71 49 71 23 0 46 -4 49 -10z m255 -27 c0
-21 -5 -45 -10 -53 -7 -11 -10 0 -10 38 0 28 5 52 10 52 6 0 10 -17 10 -37z
m125 27 c3 -5 35 -10 71 -10 36 0 64 4 64 10 0 14 64 12 78 -2 7 -7 12 -21 11
-32 0 -20 -1 -20 -11 1 -16 33 -46 39 -72 14 -17 -18 -19 -24 -8 -41 12 -19
10 -20 -61 -20 l-72 0 0 31 c0 38 -26 60 -52 43 -11 -7 -18 -24 -18 -43 0 -17
-3 -31 -7 -31 -5 0 -8 20 -8 45 l0 45 39 0 c22 0 43 -4 46 -10z m267 -20 c-4
-30 -22 -43 -22 -16 0 8 -3 21 -6 30 -4 11 0 16 13 16 16 0 19 -5 15 -30z
m118 20 c0 -6 30 -10 70 -10 40 0 70 4 70 10 0 6 20 10 46 10 l45 0 -3 -47
c-2 -37 -7 -49 -21 -51 -17 -4 -18 -2 -3 21 15 23 15 26 -3 48 -16 21 -22 22
-45 11 -27 -12 -36 -48 -15 -69 7 -7 -13 -11 -70 -11 -45 -1 -81 1 -81 3 0 3
6 14 12 25 11 17 9 23 -8 41 -39 38 -90 -2 -64 -51 8 -16 8 -20 -4 -20 -7 0
-17 7 -20 16 -8 21 -8 69 1 77 10 11 93 8 93 -3z m285 0 c10 -17 -6 -80 -21
-80 -10 0 -14 13 -14 45 0 33 4 45 14 45 8 0 18 -4 21 -10z m120 0 c3 -5 35
-10 71 -10 36 0 64 4 64 10 0 6 18 10 40 10 46 0 68 -26 50 -60 -6 -11 -14
-19 -18 -18 -4 1 -15 -2 -25 -7 -23 -10 -50 15 -41 38 9 25 49 21 62 -5 10
-19 11 -19 9 -4 -1 10 -11 25 -23 33 -19 12 -24 11 -45 -6 -21 -17 -22 -21
-11 -46 10 -21 18 -26 37 -22 32 6 32 -3 -1 -34 -24 -23 -32 -24 -159 -24 -73
0 -136 3 -139 6 -4 3 0 19 9 35 8 16 15 48 15 72 l0 42 49 0 c28 0 53 -4 56
-10z m272 -30 c-1 -32 -5 -40 -20 -40 -15 0 -17 3 -8 14 8 9 8 21 1 40 -8 22
-7 26 10 26 16 0 19 -7 17 -40z m113 30 c0 -6 28 -10 64 -10 36 0 68 5 71 10
3 6 26 10 49 10 l44 0 -2 -52 c-1 -29 -5 -59 -9 -65 -11 -18 -67 -16 -87 2
-14 13 -31 14 -91 8 -72 -7 -73 -8 -29 -14 l45 -6 -40 0 c-22 0 -53 3 -70 7
-29 7 -29 8 -4 9 25 1 69 33 69 51 0 21 -39 48 -59 43 -26 -7 -38 -48 -21 -68
10 -12 10 -15 -3 -15 -18 0 -30 41 -21 75 5 22 12 25 50 25 24 0 44 -4 44 -10z
m260 -27 c0 -21 -5 -45 -10 -53 -7 -11 -10 0 -10 38 0 28 5 52 10 52 6 0 10
-17 10 -37z m120 26 c0 -6 -7 -8 -16 -5 -8 3 -25 1 -36 -5 -17 -9 -19 -17 -15
-47 4 -22 3 -32 -3 -26 -10 10 -14 35 -12 72 2 19 8 22 42 22 23 0 40 -5 40
-11z m220 -8 c18 -35 11 -43 -14 -15 -23 27 -24 28 -50 11 -29 -19 -31 -29
-16 -58 10 -18 7 -19 -62 -19 l-73 0 0 40 0 40 67 0 c39 0 68 4 68 10 0 6 16
10 35 10 24 0 37 -6 45 -19z m52 -16 c-4 -35 -22 -40 -22 -6 0 9 -5 22 -12 29
-9 9 -6 12 13 12 23 0 25 -3 21 -35z m-3407 1 c0 -29 -31 -44 -50 -25 -23 23
-9 51 24 47 18 -2 26 -9 26 -22z m203 7 c13 -26 4 -43 -24 -43 -29 0 -41 24
-24 45 17 20 37 19 48 -2z m166 11 c21 -8 21 -50 0 -58 -32 -12 -57 27 -32 52
14 14 12 14 32 6z m4140 -17 c9 -14 7 -21 -7 -32 -33 -24 -71 11 -46 42 15 18
39 13 53 -10z m179 11 c6 -18 -11 -48 -27 -48 -20 0 -39 27 -32 45 7 18 52 20
59 3z m-5917 -4 c50 -6 51 -7 40 -31 -10 -23 -14 -24 -66 -18 -62 8 -73 14
-64 38 7 19 15 20 90 11z m1819 -24 c0 -18 -6 -26 -23 -28 -13 -2 -25 3 -28
12 -10 26 4 48 28 44 17 -2 23 -10 23 -28z m419 8 c8 -14 7 -21 -6 -34 -30
-30 -75 9 -48 42 16 18 39 15 54 -8z m560 -1 c8 -12 7 -21 -6 -33 -22 -22 -48
-11 -48 20 0 37 34 45 54 13z m210 1 c7 -12 6 -21 -3 -32 -18 -22 -38 -20 -51
3 -7 15 -6 24 6 36 19 18 33 16 48 -7z m170 6 c19 -19 4 -57 -21 -52 -26 5
-39 34 -24 52 17 20 26 20 45 0z m204 7 c20 -12 11 -56 -12 -56 -27 0 -43 29
-27 49 15 18 21 19 39 7z m2147 -21 c0 -18 -6 -26 -23 -28 -13 -2 -25 3 -28
12 -10 26 4 48 28 44 17 -2 23 -10 23 -28z m-1555 -5 c0 -31 -26 -43 -47 -22
-21 21 -9 47 22 47 20 0 25 -5 25 -25z m385 15 c11 -18 -6 -50 -26 -50 -22 0
-34 22 -25 45 6 17 42 20 51 5z m210 -14 c0 -29 -31 -44 -50 -25 -23 23 -9 51
24 47 18 -2 26 -9 26 -22z m380 -6 c0 -18 -6 -26 -23 -28 -13 -2 -25 3 -28 12
-10 26 4 48 28 44 17 -2 23 -10 23 -28z m-4755 11 l25 -7 -35 -22 c-19 -12
-35 -20 -36 -19 0 1 -4 14 -8 30 -7 29 3 33 54 18z m1002 -44 c29 -4 89 -7
132 -7 l79 0 -19 -21 c-17 -19 -27 -20 -150 -17 -73 2 -135 5 -138 9 -3 3 2
21 12 41 14 28 18 32 24 18 4 -12 23 -19 60 -23z m4773 2 c103 2 126 0 123
-11 -3 -7 -20 -18 -39 -25 -37 -13 -273 -18 -267 -5 3 4 10 22 17 40 12 30 14
31 26 15 11 -15 28 -17 140 -14z m-5980 2 c34 -7 35 -9 10 -9 -16 0 -43 4 -60
8 -42 11 -1 11 50 1z m815 1 c25 -4 41 -10 35 -13 -5 -3 -37 0 -70 6 -65 13
-39 18 35 7z m1914 -7 c4 -12 29 -15 138 -15 l132 0 -22 -22 c-19 -20 -35 -24
-108 -27 -47 -2 -110 0 -139 4 l-54 6 17 34 c19 38 27 43 36 20z m1697 -15
l134 -1 -28 -24 c-27 -24 -35 -25 -147 -25 -149 0 -152 1 -131 45 13 28 18 31
27 19 9 -11 41 -14 145 -14z m-3589 -6 c3 -2 4 -13 1 -24 -5 -18 -11 -20 -52
-15 -65 9 -71 12 -71 36 0 20 3 21 58 14 31 -4 60 -9 64 -11z m834 0 c-3 -9
-6 -20 -6 -26 0 -11 -114 -7 -126 5 -4 3 -4 13 -1 22 5 11 22 15 73 15 56 0
65 -2 60 -16z m144 -15 c-31 -26 -35 -28 -39 -12 -2 10 -8 24 -13 31 -8 9 1
12 38 12 l49 -1 -35 -30z m655 11 c18 -8 18 -9 -5 -9 -14 0 -45 4 -70 8 l-45
8 50 1 c28 0 59 -3 70 -8z m772 -16 c-11 -23 -17 -25 -64 -22 -28 2 -49 0 -46
-4 2 -5 28 -9 56 -10 l52 -2 -48 -3 c-55 -5 -77 8 -77 43 0 23 3 24 69 24 l69
0 -11 -26z m163 10 c-27 -32 -46 -35 -58 -9 -11 24 -10 25 29 25 36 0 40 -2
29 -16z m1401 -1 c-5 -10 -12 -26 -15 -35 -4 -15 -16 -18 -58 -16 l-53 1 55 7
55 7 -57 1 c-55 2 -71 12 -60 40 3 8 27 12 73 12 63 0 68 -2 60 -17z m149 -8
c-27 -29 -40 -28 -51 3 -8 20 -5 22 33 22 l41 0 -23 -25z m580 15 l-65 -7 58
-1 c54 -2 57 -3 57 -27 0 -25 -2 -26 -57 -23 -46 2 -58 7 -61 21 -8 39 5 47
70 45 l63 -1 -65 -7z m-4541 -3 c-2 -1 -12 -9 -21 -16 -15 -12 -18 -11 -18 3
0 10 8 16 22 16 12 0 19 -1 17 -3z m4741 -12 c-7 -8 -16 -15 -21 -15 -5 0 -9
7 -9 15 0 9 9 15 21 15 18 0 19 -2 9 -15z m-3263 -9 c2 -2 1 -11 -3 -20 -9
-23 -109 -23 -118 0 -13 34 -7 37 56 30 34 -3 63 -8 65 -10z m153 5 c0 -5 -7
-12 -16 -15 -22 -9 -24 -8 -24 9 0 8 9 15 20 15 11 0 20 -4 20 -9z m1407 -5
c1 -1 0 -12 -3 -24 -6 -19 -11 -21 -53 -16 -65 8 -71 11 -71 34 0 20 4 21 63
14 34 -4 63 -7 64 -8z m152 1 c-2 -1 -12 -9 -21 -16 -15 -12 -18 -11 -18 3 0
10 8 16 22 16 12 0 19 -1 17 -3z m-2546 -24 c-13 -2 -35 -2 -50 0 -16 2 -5 4
22 4 28 0 40 -2 28 -4z m5070 -131 l6 -83 -37 7 c-20 4 -39 8 -40 10 -2 1 9
46 25 98 31 107 36 104 46 -32z m-30 -103 c42 -11 44 -20 22 -97 -17 -56 -20
-57 -92 -31 -27 10 -27 3 -7 70 23 79 18 75 77 58z m53 -146 c-11 -11 -19 6
-11 24 8 17 8 17 12 0 3 -10 2 -21 -1 -24z m-416 -167 c0 -2 -33 -6 -72 -10
-40 -4 -81 -9 -90 -12 -29 -8 -21 6 43 89 l62 78 28 -71 c16 -39 29 -73 29
-74z m3576 120 c18 -14 18 -16 -13 -47 l-32 -33 -26 24 c-14 13 -25 20 -25 16
0 -4 10 -16 23 -26 l22 -19 -33 -33 c-32 -32 -34 -32 -47 -14 -34 46 31 145
96 146 8 0 24 -7 35 -14z m64 -18 c0 -17 -1 -29 -2 -27 -2 2 -14 16 -27 32
l-24 27 26 0 c24 0 27 -4 27 -32z m-20 -27 c18 -34 11 -70 -19 -103 -24 -27
-36 -33 -70 -33 -62 0 -72 18 -33 57 l31 32 28 -24 28 -25 -24 28 -25 27 29
30 c34 35 41 37 55 11z m-90 -151 c15 0 44 11 64 25 l37 25 -18 -31 c-21 -37
-37 -44 -120 -53 l-63 -7 0 45 0 45 36 -24 c20 -14 49 -25 64 -25z m-2710 -95
c-7 -8 -16 -12 -21 -9 -13 8 -1 24 18 24 13 0 13 -3 3 -15z m66 0 c46 -31 -9
-115 -75 -115 -20 0 -43 5 -51 10 -12 8 -10 14 15 40 l29 30 21 -20 c31 -29
43 -25 15 5 -23 24 -23 25 -5 45 22 24 25 24 51 5z m-100 -16 c3 -6 -7 -25
-24 -42 -27 -27 -32 -28 -38 -14 -13 35 43 86 62 56z m134 -90 c0 -45 -2 -50
-17 -44 -10 4 -31 10 -46 13 l-28 4 30 19 c16 10 35 27 41 38 16 31 20 26 20
-30z m-130 -19 c25 0 25 0 -6 -19 -18 -11 -35 -25 -40 -33 -9 -14 -21 18 -23
60 -1 22 0 22 21 8 12 -9 34 -16 48 -16z"/>
<path d="M7016 5623 c-34 -207 -31 -705 4 -798 5 -14 24 -32 42 -39 127 -56
272 -115 275 -113 1 2 -4 35 -12 73 -27 133 -38 285 -32 459 5 152 27 338 41
352 3 3 13 3 22 -1 11 -4 14 -13 10 -29 -52 -183 -46 -683 9 -850 17 -49 14
-27 -12 108 -25 126 -25 564 0 675 9 41 17 80 17 86 0 6 -22 21 -49 33 -48 20
-269 81 -296 81 -8 0 -16 -16 -19 -37z m159 -8 c106 -27 145 -42 145 -52 0 -5
-7 -44 -15 -88 -35 -182 -29 -562 9 -730 8 -30 11 -55 8 -55 -3 0 -60 23 -126
51 -67 28 -131 54 -142 59 -29 11 -42 90 -50 292 -6 140 7 452 22 527 7 35 -3
35 149 -4z"/>
<path d="M6615 5393 c-9 -156 -2 -343 15 -418 l11 -50 147 -47 c80 -26 148
-45 150 -44 2 2 -2 50 -8 106 -5 56 -10 182 -10 279 l0 177 -142 67 c-79 37
-146 67 -149 67 -4 0 -10 -62 -14 -137z m160 60 l135 -68 0 -190 c1 -104 5
-224 10 -265 4 -41 7 -76 5 -78 -2 -2 -45 10 -97 26 -51 17 -112 35 -134 41
-38 10 -43 15 -52 54 -18 69 -25 242 -17 400 4 81 9 147 11 147 2 0 65 -30
139 -67z"/>
<path d="M9332 5088 c-29 -29 -2 -72 40 -66 17 2 24 11 26 32 5 41 -37 63 -66
34z m53 -28 c0 -18 -6 -26 -23 -28 -13 -2 -25 3 -28 12 -10 26 4 48 28 44 17
-2 23 -10 23 -28z"/>
<path d="M9817 4445 c-22 -7 -50 -24 -64 -36 -28 -27 -83 -120 -83 -140 0 -8
15 13 33 45 45 83 77 112 141 127 60 13 132 1 297 -51 49 -15 89 -25 89 -21 0
8 -162 57 -255 77 -76 17 -110 17 -158 -1z"/>
<path d="M11477 3494 c-33 -33 -41 -57 -33 -99 15 -81 116 -112 178 -56 28 25
33 36 33 75 0 36 -6 51 -29 75 -25 26 -37 31 -77 31 -37 0 -52 -5 -72 -26z
m123 6 c12 -8 2 -23 -55 -80 l-69 -70 -14 26 c-19 36 -7 88 25 114 27 21 87
27 113 10z m40 -49 c32 -79 -67 -167 -134 -118 -16 11 -15 15 13 42 l31 29 25
-24 c14 -13 25 -19 25 -13 0 5 -9 18 -20 28 -19 18 -19 18 8 51 15 18 30 33
33 33 4 1 12 -12 19 -28z"/>
<path d="M11515 3440 c10 -11 20 -18 23 -15 7 6 -18 35 -31 35 -5 0 -2 -9 8
-20z"/>
<path d="M10521 3404 c-6 -21 -9 -39 -8 -40 10 -10 361 -94 367 -87 4 4 11 22
14 39 l7 31 -158 41 c-87 23 -170 44 -185 47 -24 6 -28 3 -37 -31z m204 -30
c83 -20 153 -40 156 -43 4 -3 3 -16 -1 -28 l-9 -21 -158 39 c-87 22 -163 41
-169 44 -7 2 -9 15 -7 29 4 19 10 25 22 22 9 -3 84 -22 166 -42z"/>
<path d="M10500 3324 c0 -5 -18 -83 -39 -174 -45 -190 -55 -205 -143 -214 -29
-3 -228 -8 -443 -11 -214 -3 -459 -8 -544 -11 l-154 -7 7 -585 c4 -322 8 -587
9 -588 5 -5 1298 24 1303 29 6 6 39 133 228 875 80 315 146 578 146 586 0 8
-57 28 -167 56 -93 24 -176 45 -185 48 -10 2 -18 0 -18 -4z m347 -110 c1 -5
-79 -331 -180 -724 l-182 -715 -140 -2 c-77 -2 -362 -7 -634 -13 -272 -5 -497
-7 -500 -5 -5 6 -16 1134 -10 1136 2 1 263 7 579 13 509 11 579 14 607 29 44
23 50 38 90 206 18 80 35 151 38 158 4 13 327 -67 332 -83z"/>
<path d="M11401 3220 l-145 -5 2 -70 c1 -38 5 -97 8 -130 l6 -60 206 8 c114 5
210 12 213 15 10 11 -5 107 -16 105 -6 -1 -97 -5 -203 -9 -131 -5 -192 -4
-192 3 0 7 63 13 168 18 201 8 230 10 238 17 3 4 3 31 -1 62 l-7 56 -67 -2
c-36 -1 -131 -5 -210 -8z m263 -26 c3 -9 6 -28 6 -44 0 -26 -4 -29 -42 -34
-24 -3 -112 -7 -195 -10 l-153 -5 0 34 c0 18 -3 40 -6 49 -5 13 11 16 118 19
67 1 155 4 194 5 58 2 73 -1 78 -14z m12 -199 c-3 -9 -55 -15 -191 -20 -203
-8 -205 -8 -205 46 l0 26 193 9 192 9 8 -29 c5 -16 6 -34 3 -41z"/>
<path d="M10925 3198 c-3 -13 -9 -42 -14 -65 l-9 -43 160 0 160 0 -4 63 -3 62
-142 3 c-141 3 -143 2 -148 -20z m279 -20 c3 -13 6 -35 6 -50 l0 -28 -140 0
c-155 0 -148 -4 -134 69 l7 31 127 0 c124 0 128 -1 134 -22z"/>
<path d="M10897 3063 c-3 -5 -8 -32 -12 -62 l-7 -54 171 5 c95 3 174 7 175 9
2 2 1 28 -1 57 l-6 52 -158 0 c-87 0 -160 -3 -162 -7z m315 -52 l3 -38 -155
-6 c-85 -3 -157 -3 -158 -2 -2 2 -1 22 3 44 l7 41 148 0 148 0 4 -39z"/>
<path d="M11415 2940 l-140 -5 0 -55 0 -55 65 2 c36 1 131 5 213 9 l147 6 0
54 0 54 -72 -2 c-40 -1 -136 -5 -213 -8z m265 -40 c0 -16 0 -33 0 -37 0 -9
-132 -20 -280 -23 l-105 -3 -3 41 -3 41 123 4 c68 1 156 4 196 5 l72 2 0 -30z"/>
<path d="M10861 2880 c-15 -69 -15 -69 17 -66 15 2 100 4 190 5 l162 1 0 55 0
55 -179 0 -179 0 -11 -50z m359 -11 l0 -39 -176 0 -176 0 6 23 c3 12 6 30 6
39 0 16 16 18 163 20 89 2 165 2 170 0 4 -2 7 -21 7 -43z"/>
<path d="M11485 2810 c-66 -4 -139 -8 -162 -9 l-43 -1 0 -56 0 -57 133 7 c72
3 169 9 215 13 l82 6 0 53 0 54 -52 -2 c-29 -1 -107 -5 -173 -8z m205 -49 l0
-39 -102 -6 c-57 -4 -145 -9 -195 -12 l-93 -6 0 41 c0 22 3 42 8 42 11 2 269
15 330 17 l52 2 0 -39z"/>
<path d="M10924 2793 l-81 -4 -25 -124 c-14 -69 -24 -126 -22 -127 1 -2 103 2
226 7 202 9 223 12 222 28 0 9 -1 34 -2 55 l-2 37 -42 -2 c-24 -1 -114 -4
-200 -6 -124 -2 -158 0 -158 10 0 10 31 13 133 13 72 0 162 3 200 7 l67 6 0
53 0 54 -117 -2 c-65 -1 -155 -4 -199 -5z m306 -52 l0 -38 -82 -6 c-146 -12
-308 -9 -304 6 3 6 7 24 10 39 7 32 17 34 229 36 l147 2 0 -39z m2 -132 c2
-23 -1 -43 -7 -44 -5 -2 -99 -6 -207 -10 -194 -6 -198 -6 -198 14 0 11 4 31
10 45 l9 26 173 3 c95 1 183 4 194 5 19 2 22 -4 26 -39z"/>
<path d="M11600 2683 c-25 -2 -106 -7 -180 -11 l-135 -7 3 -55 c2 -30 5 -55 5
-56 1 0 92 5 202 12 110 7 206 13 213 13 9 1 12 16 10 54 l-3 52 -35 1 c-19 1
-55 -1 -80 -3z m100 -52 l0 -38 -62 -6 c-35 -4 -121 -9 -191 -13 -141 -8 -147
-6 -147 49 0 26 2 27 58 28 31 1 104 5 162 9 198 13 180 16 180 -29z"/>
<path d="M11540 2548 c-80 -4 -169 -11 -197 -14 l-53 -5 0 -49 c0 -27 4 -51 8
-54 9 -5 286 9 380 20 l53 6 -3 51 c-5 61 11 57 -188 45z m168 -49 c3 -36 2
-37 -40 -42 -24 -4 -95 -9 -158 -12 -63 -3 -134 -8 -157 -11 l-43 -5 0 45 0
46 88 1 c48 1 128 5 177 9 131 11 130 11 133 -31z"/>
<path d="M10943 2521 c-78 -4 -146 -10 -152 -16 -5 -5 -13 -32 -16 -59 l-8
-48 164 6 c90 4 199 9 242 12 l77 6 0 54 0 54 -82 -2 c-46 -1 -147 -4 -225 -7z
m297 -50 l0 -39 -107 -6 c-364 -20 -343 -20 -342 0 1 11 4 30 8 44 7 25 9 25
131 30 69 3 167 7 218 8 l92 2 0 -39z"/>
<path d="M11625 2420 c-49 -5 -143 -11 -207 -15 l-118 -7 0 -54 0 -54 35 0
c31 0 296 17 370 24 21 1 30 7 29 19 0 9 -1 35 -2 57 -1 22 -5 39 -9 39 -5 -1
-48 -5 -98 -9z m91 -45 c3 -20 4 -39 1 -42 -7 -6 -119 -17 -289 -28 l-108 -6
0 39 0 40 73 6 c39 3 124 10 187 15 63 4 118 9 122 10 4 0 10 -15 14 -34z"/>
<path d="M11085 2390 c-77 -4 -179 -8 -228 -9 -97 -1 -96 0 -111 -84 l-7 -38
138 6 c76 4 192 10 258 14 l120 6 0 55 c0 42 -4 55 -15 56 -8 0 -78 -2 -155
-6z m160 -55 l0 -40 -145 -7 c-80 -3 -189 -9 -243 -13 l-98 -6 7 38 c3 21 9
41 13 45 6 6 372 27 436 24 28 -1 30 -3 30 -41z"/>
<path d="M11460 2276 l-155 -11 4 -55 c1 -30 4 -55 5 -56 3 -2 412 27 421 30
6 2 8 26 7 55 l-4 51 -61 -2 c-34 -1 -132 -6 -217 -12z m262 -42 c2 -19 2 -37
-1 -38 -11 -7 -381 -29 -387 -24 -3 3 -7 21 -11 40 l-5 35 138 10 c77 5 167
11 200 11 l62 2 4 -36z"/>
<path d="M10970 2249 c-264 -14 -233 -6 -247 -69 -6 -30 -11 -56 -9 -57 2 -2
120 3 262 12 142 8 266 15 275 15 12 0 15 11 15 55 l-1 55 -70 -2 c-38 0 -140
-5 -225 -9z m280 -49 c0 -37 -2 -40 -27 -40 -16 -1 -131 -7 -258 -14 -126 -8
-231 -13 -232 -12 -3 2 15 77 19 81 4 5 306 21 421 24 l77 1 0 -40z"/>
<path d="M11500 2144 c-85 -7 -163 -13 -173 -13 -15 -1 -18 -9 -15 -53 l3 -53
55 1 c30 1 128 7 218 14 l162 13 0 53 0 54 -47 -2 c-27 0 -118 -7 -203 -14z
m230 -43 l0 -38 -157 -12 c-87 -6 -177 -14 -200 -17 l-43 -5 0 40 c0 23 1 42
3 42 5 3 304 26 350 27 l47 2 0 -39z"/>
<path d="M10960 2113 c-135 -8 -248 -18 -252 -21 -4 -4 -10 -31 -14 -61 l-7
-53 49 6 c27 3 144 10 259 16 297 15 275 9 275 75 l0 55 -32 -1 c-18 -1 -143
-8 -278 -16z m300 -43 c0 -22 -1 -40 -2 -41 -2 0 -126 -8 -277 -18 l-273 -16
5 38 c3 21 7 40 9 43 4 3 393 29 501 33 37 1 37 1 37 -39z"/>
<path d="M11605 2020 c-38 -4 -119 -11 -178 -15 l-108 -7 3 -56 c3 -57 3 -57
33 -54 261 22 381 32 392 32 9 0 13 17 13 55 l0 55 -42 -1 c-24 -1 -74 -5
-113 -9z m135 -49 l0 -38 -122 -11 c-68 -7 -158 -14 -200 -18 l-78 -6 0 40 0
40 63 6 c155 14 265 23 300 25 37 1 37 1 37 -38z"/>
<path d="M10900 1973 c-133 -9 -217 -18 -221 -25 -8 -13 -22 -98 -17 -103 2
-1 125 6 273 16 149 10 287 18 308 19 l37 0 0 55 0 55 -82 -1 c-46 -1 -180 -8
-298 -16z m370 -44 l0 -39 -47 -1 c-27 0 -160 -8 -296 -17 l-248 -17 7 40 c3
22 7 41 9 43 4 5 559 38 568 34 4 -2 7 -21 7 -43z"/>
<path d="M11685 1893 c-16 -2 -104 -9 -195 -16 l-165 -12 4 -55 c1 -30 4 -56
5 -56 1 -2 284 22 374 32 l63 6 -3 52 c-5 55 -10 59 -83 49z m65 -52 c0 -38
-1 -38 -42 -44 -87 -12 -348 -30 -353 -25 -3 3 -8 21 -11 40 l-6 34 178 16
c99 8 191 16 207 16 25 2 27 -1 27 -37z"/>
<path d="M10950 1839 c-140 -9 -265 -18 -277 -18 -18 -1 -23 -10 -33 -57 -7
-30 -10 -57 -8 -58 5 -4 650 43 655 48 2 2 1 27 -3 55 l-7 51 -36 -1 c-20 -1
-151 -10 -291 -20z m322 -36 c3 -21 4 -39 3 -40 -2 -4 -551 -43 -592 -43 -31
0 -32 1 -26 33 3 17 9 36 14 41 6 7 422 41 555 45 41 1 42 0 46 -36z"/>
<path d="M11595 1754 c-77 -7 -168 -16 -202 -19 l-63 -7 0 -48 c0 -27 3 -51 8
-53 6 -4 434 33 439 37 1 1 0 26 -4 54 -4 39 -10 52 -22 51 -9 -1 -79 -8 -156
-15z m161 -39 c3 -20 5 -37 3 -39 -5 -5 -337 -36 -378 -36 -29 0 -31 3 -31 35
0 40 -10 38 220 58 85 8 160 15 167 16 7 0 15 -15 19 -34z"/>
<path d="M10965 1704 c-165 -12 -309 -23 -321 -23 -17 -1 -22 -11 -31 -56 -9
-50 -8 -55 8 -55 28 0 557 39 617 46 l52 5 0 55 c0 37 -4 54 -12 53 -7 -1
-148 -12 -313 -25z m315 -33 l0 -39 -57 -6 c-32 -3 -152 -13 -268 -21 -115 -8
-238 -17 -272 -21 l-61 -5 8 36 c5 20 11 39 14 43 4 3 140 15 304 27 163 12
305 23 315 24 13 1 17 -7 17 -38z"/>
<path d="M8130 5228 c-81 -31 -166 -120 -218 -228 -76 -156 -114 -344 -132
-650 -19 -323 33 -1849 90 -2670 26 -367 34 -432 77 -625 43 -193 77 -306 109
-356 24 -39 64 -69 64 -49 0 5 -7 10 -15 10 -21 0 -66 83 -92 171 -37 128 -92
388 -102 484 -60 538 -141 2584 -120 3015 17 359 70 584 175 741 59 90 123
137 224 165 30 8 37 12 20 13 -14 0 -50 -10 -80 -21z"/>
<path d="M8296 4938 c-68 -69 -115 -154 -141 -253 -18 -69 -35 -211 -34 -270
1 -22 7 15 15 82 16 147 35 226 77 311 31 63 97 142 147 175 14 9 19 16 12 16
-8 1 -42 -27 -76 -61z"/>
<path d="M8362 4882 c-57 -55 -101 -137 -127 -232 -26 -98 -30 -443 -11 -975
9 -247 19 -451 21 -454 7 -7 7 24 -11 494 -20 535 -15 827 15 938 28 104 64
169 129 228 29 27 49 49 43 49 -5 0 -32 -22 -59 -48z"/>
<path d="M8892 4968 c-27 -27 0 -88 40 -88 19 0 48 32 48 53 0 38 -61 62 -88
35z m66 -10 c32 -32 -8 -80 -48 -58 -34 18 -19 70 20 70 9 0 21 -5 28 -12z"/>
<path d="M8594 4872 c35 -6 38 -8 23 -21 -26 -21 -22 -77 7 -97 33 -21 65 -15
90 19 17 24 19 32 9 58 l-12 32 72 -7 c111 -11 184 -33 287 -88 108 -57 111
-50 5 10 -118 66 -207 87 -405 96 -63 2 -97 1 -76 -2z m96 -21 c0 -16 -28 -31
-46 -25 -15 6 -17 4 -7 -6 9 -10 10 -17 2 -27 -26 -31 -41 7 -19 48 11 19 70
28 70 10z m21 -67 c-11 -25 -52 -41 -71 -29 -8 5 1 21 26 46 32 33 39 37 47
23 6 -10 5 -25 -2 -40z"/>
<path d="M8670 4791 c0 -5 5 -13 10 -16 6 -3 10 -2 10 4 0 5 -4 13 -10 16 -5
3 -10 2 -10 -4z"/>
<path d="M10785 4115 c-5 -2 -22 -6 -37 -9 -16 -4 -28 -11 -28 -17 0 -6 8 -5
22 2 34 18 124 13 170 -10 23 -11 44 -19 46 -16 16 16 -142 62 -173 50z"/>
<path d="M10781 4004 c-1 -69 -28 -184 -64 -274 -28 -68 -27 -78 2 -22 45 89
86 280 70 331 -5 19 -8 10 -8 -35z"/>
<path d="M11350 4028 c14 -6 46 -21 73 -33 26 -12 47 -19 47 -15 0 9 -113 60
-131 59 -8 0 -3 -5 11 -11z"/>
<path d="M9230 3817 c-37 -19 -52 -57 -39 -96 19 -55 88 -70 127 -28 37 39 28
98 -19 122 -34 18 -37 18 -69 2z m70 -17 c0 -4 -9 -15 -20 -25 -16 -15 -22
-15 -35 -5 -9 8 -15 8 -15 2 0 -6 5 -14 11 -17 7 -5 4 -14 -7 -26 -21 -24 -31
-24 -36 -1 -7 31 13 71 40 80 28 9 62 5 62 -8z m30 -51 c0 -16 -9 -38 -20 -49
-19 -19 -69 -27 -84 -13 -8 9 85 104 96 97 4 -3 8 -18 8 -35z"/>
<path d="M9270 3732 c0 -12 19 -26 26 -19 2 2 -2 10 -11 17 -9 8 -15 8 -15 2z"/>
<path d="M8396 3769 c-35 -27 -36 -80 -3 -106 13 -10 65 -29 116 -42 l92 -24
27 20 c35 26 42 81 14 106 -18 17 -170 66 -203 67 -9 0 -28 -9 -43 -21z m84
-9 c11 -11 20 -31 20 -45 0 -25 -31 -65 -51 -65 -15 0 -53 21 -61 34 -23 34
10 96 52 96 11 0 29 -9 40 -20z m58 -6 l23 -7 -22 -23 c-16 -17 -20 -32 -17
-58 4 -39 4 -39 -30 -30 l-23 7 22 23 c16 17 20 32 17 58 -4 39 -4 39 30 30z
m76 -26 c46 -20 47 -85 1 -106 -64 -29 -115 48 -65 98 23 23 30 24 64 8z"/>
<path d="M9895 3591 c-2 -2 6 -24 19 -50 31 -61 52 -127 74 -231 11 -50 23
-85 30 -84 7 1 29 2 51 3 l39 1 -13 68 c-18 89 -52 196 -81 255 -24 47 -25 47
-70 45 -25 -2 -47 -5 -49 -7z m103 -36 c16 -35 16 -35 -21 -35 -26 0 -36 6
-45 25 -16 35 -16 35 21 35 26 0 36 -6 45 -25z m45 -102 c19 -55 47 -169 47
-195 0 -14 -8 -18 -33 -18 l-34 0 -17 83 c-10 45 -26 103 -36 130 l-18 47 37
0 c35 0 38 -2 54 -47z"/>
<path d="M10030 3594 c0 -1 13 -33 29 -70 33 -78 66 -188 76 -251 l7 -43 49 0
c57 0 56 -3 33 107 -17 85 -67 219 -91 246 -11 12 -29 17 -60 15 -23 -1 -43
-2 -43 -4z m108 -39 c16 -35 16 -35 -20 -35 -26 0 -37 6 -50 30 l-17 30 38 0
c31 0 40 -5 49 -25z m38 -90 c15 -36 54 -189 54 -212 0 -8 -14 -13 -35 -13
-28 0 -36 4 -39 23 -18 86 -31 139 -47 185 l-18 52 35 0 c31 0 37 -4 50 -35z"/>
<path d="M9490 3579 c0 -3 13 -41 29 -85 25 -68 36 -113 67 -261 4 -21 10 -23
59 -23 52 0 55 1 50 23 -2 12 -12 54 -20 92 -19 85 -40 155 -67 215 -19 45
-20 45 -69 45 -27 0 -49 -3 -49 -6z m107 -39 l11 -30 -38 0 c-33 0 -39 4 -49
30 -10 30 -10 30 27 30 33 0 39 -4 49 -30z m41 -122 c23 -79 41 -156 42 -175
0 -8 -14 -13 -38 -13 l-38 0 -16 83 c-9 45 -24 103 -32 130 l-15 47 38 0 38 0
21 -72z"/>
<path d="M9630 3584 c0 -3 18 -58 40 -122 21 -64 44 -147 51 -184 l11 -68 48
0 c27 0 51 3 53 8 7 12 -48 221 -79 300 l-28 72 -48 0 c-26 0 -48 -3 -48 -6z
m99 -35 c6 -18 11 -34 11 -35 0 -2 -15 -4 -34 -4 -29 0 -36 4 -45 31 -6 18
-11 34 -11 35 0 2 15 4 34 4 29 0 36 -4 45 -31z m54 -154 c14 -49 28 -107 31
-128 l7 -38 -37 3 -38 3 -12 65 c-7 36 -21 93 -32 127 l-20 62 32 3 c17 2 34
1 38 -2 3 -3 18 -45 31 -95z"/>
<path d="M9765 3573 c46 -110 75 -205 101 -330 4 -20 11 -23 54 -23 28 0 50 2
50 4 0 2 -6 37 -14 78 -16 82 -47 182 -78 246 -19 41 -21 42 -70 42 -44 0 -49
-2 -43 -17z m100 -23 l16 -30 -35 0 c-29 0 -38 5 -51 30 l-16 30 35 0 c29 0
38 -5 51 -30z m49 -128 c13 -43 29 -101 34 -130 l9 -52 -28 0 c-16 0 -32 0
-36 0 -4 -1 -15 34 -24 77 -10 43 -25 98 -33 122 -22 59 -21 61 19 61 34 0 34
0 59 -78z"/>
<path d="M9365 3563 c19 -50 77 -264 82 -305 l6 -48 52 0 53 0 -19 88 c-11 48
-33 131 -49 185 l-31 97 -50 0 c-45 0 -50 -2 -44 -17z m94 -24 c6 -18 11 -34
11 -35 0 -2 -15 -4 -34 -4 -23 0 -35 5 -39 18 -2 9 -8 25 -12 35 -6 14 -2 17
28 17 30 0 37 -4 46 -31z m39 -121 c22 -72 44 -179 40 -184 -2 -1 -16 -4 -32
-6 l-29 -3 -27 110 c-16 61 -31 117 -35 127 -4 11 -1 18 12 21 46 12 50 8 71
-65z"/>
<path d="M9118 3563 c-16 -2 -28 -7 -28 -9 0 -3 12 -46 26 -96 15 -50 34 -130
44 -177 l17 -85 54 3 c30 1 55 4 56 5 4 4 -37 175 -64 266 -31 103 -33 105
-105 93z m77 -45 c7 -27 6 -28 -34 -28 -29 0 -41 4 -41 14 0 8 -3 21 -6 29 -4
12 3 16 28 19 40 4 45 1 53 -34z m49 -170 c16 -65 28 -119 25 -122 -2 -2 -20
-6 -40 -10 l-37 -6 -12 67 c-7 38 -21 96 -31 131 l-18 63 42 -3 42 -3 29 -117z"/>
<path d="M9230 3563 c0 -5 9 -37 20 -73 24 -78 56 -201 64 -252 7 -38 7 -38
56 -38 41 0 50 3 50 18 0 32 -28 149 -60 251 l-31 101 -49 0 c-28 0 -50 -3
-50 -7z m99 -33 c10 -30 9 -30 -25 -30 -28 0 -36 5 -44 26 -14 35 -14 34 24
34 29 0 36 -5 45 -30z m21 -54 c0 -2 11 -46 24 -98 13 -51 27 -108 30 -125 5
-32 4 -33 -30 -33 -19 0 -36 5 -38 13 -25 100 -56 234 -56 240 0 7 70 10 70 3z"/>
<path d="M8960 3545 c0 -5 16 -77 36 -160 20 -82 38 -160 40 -172 5 -24 24
-28 82 -17 29 6 30 8 25 43 -4 20 -23 99 -42 176 l-37 140 -52 0 c-29 0 -52
-4 -52 -10z m100 -21 c6 -14 10 -30 10 -35 0 -11 -80 -13 -80 -1 0 4 -3 17 -6
29 -4 15 -1 22 13 26 40 10 54 6 63 -19z m29 -104 c6 -19 19 -74 30 -122 l19
-88 -29 -1 c-16 -1 -34 -2 -40 -3 -7 -1 -22 42 -34 99 -13 55 -26 112 -30 127
-6 25 -4 27 27 30 40 4 43 2 57 -42z"/>
<path d="M8667 3420 c-63 -50 -52 -146 19 -176 21 -9 48 -13 65 -9 42 9 79 58
79 105 0 82 -99 130 -163 80z m124 -19 c48 -49 37 -120 -24 -146 -33 -14 -83
-10 -93 7 -4 5 6 23 22 39 l28 29 28 -27 c15 -15 28 -22 28 -17 0 5 -9 15 -20
22 -27 16 -25 30 8 66 l27 31 -31 -27 c-34 -31 -52 -35 -60 -13 -4 8 -11 15
-17 15 -6 0 -1 -10 11 -23 l22 -23 -28 -27 c-35 -34 -38 -33 -49 1 -32 92 79
162 148 93z"/>
<path d="M8440 3170 c-11 -11 -20 -28 -20 -38 0 -41 69 -69 98 -40 18 18 14
63 -6 81 -25 22 -48 21 -72 -3z m61 0 c21 -12 25 -50 7 -68 -39 -39 -100 17
-63 58 21 23 29 24 56 10z"/>
<path d="M8440 2972 l0 -55 158 6 c86 4 192 7 235 7 l77 0 0 50 0 51 -235 -2
-235 -1 0 -56z m460 2 c0 -33 -1 -34 -40 -34 l-40 0 17 28 c37 60 63 63 63 6z
m-71 1 c-21 -35 -22 -35 -88 -35 -38 0 -116 -3 -174 -7 l-107 -6 0 41 0 42
195 0 194 0 -20 -35z"/>
<path d="M8440 2833 l0 -56 113 6 c61 4 167 7 234 7 l121 0 4 50 3 50 -237 0
-238 0 0 -57z m460 7 l0 -40 -75 0 -75 0 17 35 c15 32 20 34 72 38 31 2 57 4
59 5 1 1 2 -16 2 -38z m-130 25 c0 -4 -7 -19 -15 -35 -15 -30 -16 -30 -103
-30 -48 0 -111 -3 -139 -6 l-53 -7 0 42 0 41 155 0 c85 0 155 -2 155 -5z"/>
<path d="M8440 2694 l0 -57 61 7 c34 3 142 6 240 6 l179 0 0 50 0 50 -240 0
-240 0 0 -56z m468 3 l3 -37 -101 0 -100 0 6 28 c9 39 12 41 89 45 103 5 100
6 103 -36z m-201 -2 l-10 -35 -119 0 -118 0 0 35 0 35 129 0 129 0 -11 -35z"/>
<path d="M8446 2601 c-3 -5 -3 -29 0 -52 l6 -44 234 3 234 3 0 49 0 50 -234 0
c-129 0 -237 -4 -240 -9z m464 -41 l0 -40 -116 0 c-102 0 -115 2 -110 16 3 9
6 24 6 34 0 17 10 20 88 23 48 1 97 4 110 5 19 2 22 -3 22 -38z m-230 18 c0
-7 -3 -23 -6 -35 -6 -22 -11 -23 -110 -23 l-104 0 0 35 0 35 110 0 c81 0 110
-3 110 -12z"/>
<path d="M8683 2472 l-233 -2 0 -50 0 -50 240 0 240 0 0 49 c0 28 -3 51 -7 53
-5 2 -113 2 -240 0z m235 -54 l3 -38 -125 0 -126 0 0 35 0 34 68 4 c37 2 92 3
122 3 l55 -1 3 -37z m-258 -3 l0 -35 -95 0 -95 0 0 35 0 35 95 0 95 0 0 -35z"/>
<path d="M8656 2333 l-209 -3 7 -38 c3 -20 6 -44 6 -52 0 -13 32 -15 235 -12
l235 3 0 54 0 55 -32 -2 c-18 -2 -127 -4 -242 -5z m7 -55 l6 -38 -100 0 -99 0
0 35 0 34 93 3 c50 2 92 3 93 3 1 0 4 -17 7 -37z m257 2 l0 -40 -119 0 -118 0
-7 31 c-3 17 -3 35 0 40 3 5 59 9 125 9 l119 0 0 -40z"/>
<path d="M8598 2193 l-138 -4 0 -49 0 -50 241 0 240 0 -3 53 -3 52 -100 0
c-55 1 -162 -1 -237 -2z m75 -20 c3 -5 8 -23 12 -40 l7 -33 -106 0 -106 0 0
35 0 34 63 4 c34 2 76 4 94 5 17 1 34 -1 36 -5z m252 -33 l0 -35 -111 -3
c-109 -3 -112 -2 -118 20 -15 59 -16 59 112 56 l117 -3 0 -35z"/>
<path d="M8543 2053 l-73 -4 0 -49 0 -50 235 0 235 0 0 55 0 55 -162 -2 c-90
-1 -196 -4 -235 -5z m171 -37 c3 -13 9 -31 12 -40 5 -14 -8 -16 -115 -16
l-121 0 0 40 0 40 109 0 c107 0 109 0 115 -24z m216 -16 l0 -40 -91 0 -90 0
-15 35 c-7 19 -14 37 -14 40 0 3 47 5 105 5 l105 0 0 -40z"/>
<path d="M8479 1916 c-2 -2 -2 -27 -1 -55 l4 -51 234 0 235 0 -3 53 -3 52
-231 3 c-127 1 -232 0 -235 -2z m294 -51 c9 -20 17 -37 17 -38 0 -1 -65 -3
-145 -3 l-145 -2 0 39 0 39 128 0 128 0 17 -35z m165 -3 c4 -41 -11 -47 -84
-36 -50 8 -57 12 -70 42 l-13 33 82 -3 82 -3 3 -33z"/>
<path d="M8492 1728 l3 -53 228 -1 227 -1 0 54 0 53 -231 0 -230 0 3 -52z
m357 -2 c12 -18 21 -35 21 -37 0 -2 -81 -3 -180 -1 l-180 3 0 34 0 35 159 0
159 0 21 -34z m91 -6 c0 -31 -4 -40 -17 -40 -24 0 -35 9 -62 48 l-22 32 50 0
51 0 0 -40z"/>
<path d="M8504 1603 c3 -21 6 -45 6 -53 0 -13 31 -15 223 -13 l222 1 1 51 2
51 -230 0 -231 0 7 -37z m434 5 c7 -7 12 -22 12 -35 l0 -23 -209 0 c-224 0
-221 -1 -221 51 0 18 10 19 203 19 145 0 206 -3 215 -12z"/>
<path d="M10610 1424 c-6 -14 -10 -31 -10 -38 0 -7 -9 -48 -21 -91 -11 -43
-21 -83 -22 -89 -2 -8 82 -10 90 -2 4 4 51 174 57 209 l7 37 -46 0 c-40 0 -47
-3 -55 -26z m80 -12 c0 -14 -24 -112 -46 -184 -4 -12 -15 -18 -35 -18 -16 0
-29 3 -29 7 0 7 38 175 46 201 2 6 17 12 34 12 22 0 30 -5 30 -18z"/>
<path d="M10744 1423 c-3 -16 -16 -68 -30 -116 -13 -48 -24 -92 -24 -97 0 -6
20 -10 45 -10 53 0 56 5 84 116 37 149 39 134 -19 134 -46 0 -50 -2 -56 -27z
m86 -10 c0 -33 -43 -174 -57 -189 -8 -7 -26 -14 -40 -14 -22 0 -24 3 -19 23 4
12 17 61 29 110 l22 87 32 0 c24 0 33 -4 33 -17z"/>
<path d="M10336 1428 c-2 -7 -12 -53 -21 -103 -31 -160 -32 -145 6 -145 19 0
40 4 48 9 7 5 24 53 37 107 13 55 26 109 29 122 5 21 2 22 -45 22 -32 0 -52
-5 -54 -12z m79 -40 c-20 -99 -36 -164 -43 -175 -4 -6 -20 -15 -36 -19 -27 -6
-28 -5 -24 17 3 13 14 66 24 117 l18 92 34 0 c33 0 33 -1 27 -32z"/>
<path d="M10452 1331 c-12 -60 -25 -116 -28 -126 -6 -14 0 -16 42 -13 l48 3
22 81 c12 45 25 100 29 123 l7 41 -49 0 -48 0 -23 -109z m92 27 c-29 -137 -36
-153 -73 -156 -25 -3 -32 0 -29 10 3 7 15 57 27 111 l23 97 33 0 33 0 -14 -62z"/>
<path d="M10067 1423 c-3 -5 -12 -51 -21 -103 -9 -52 -19 -107 -22 -122 -5
-27 -4 -28 40 -28 44 0 46 1 55 38 11 40 41 198 41 213 0 11 -87 12 -93 2z
m76 -45 c-40 -206 -35 -193 -72 -196 -31 -3 -33 -1 -28 20 3 13 11 52 17 88
21 126 18 120 56 120 32 0 33 -1 27 -32z"/>
<path d="M10194 1393 c-3 -21 -14 -77 -24 -125 -9 -48 -16 -89 -14 -90 1 -2
23 -2 47 0 39 3 46 7 51 30 3 15 12 61 21 102 8 41 17 85 20 98 5 20 2 22 -44
22 -50 0 -50 0 -57 -37z m82 -20 c-4 -21 -14 -71 -22 -110 -16 -72 -16 -73
-48 -73 l-32 0 18 88 c10 48 18 97 18 110 0 19 5 22 36 22 l36 0 -6 -37z"/>
<path d="M9713 1413 c-40 -3 -63 -8 -63 -16 0 -7 -7 -59 -15 -117 -8 -58 -15
-111 -15 -117 0 -9 15 -13 44 -13 52 0 50 -3 66 120 16 119 18 130 35 130 19
0 19 -34 1 -150 -7 -47 -12 -87 -10 -90 1 -3 22 -4 47 -2 l45 4 17 111 c9 62
19 120 21 130 6 18 -8 19 -173 10z m8 -135 l-16 -113 -33 -3 c-17 -2 -32 1
-32 6 0 15 21 175 25 199 4 15 14 23 33 25 15 2 30 3 33 1 3 -1 -2 -53 -10
-115z m149 111 c0 -5 -7 -57 -16 -115 l-17 -104 -34 0 c-28 0 -33 3 -29 18 3
9 10 55 16 102 6 47 13 91 15 98 5 15 65 16 65 1z"/>
<path d="M9907 1298 c-10 -68 -17 -126 -17 -130 0 -10 62 -10 77 0 7 4 19 44
28 87 8 44 19 99 24 123 l8 42 -51 0 -52 0 -17 -122z m100 80 c-3 -13 -11 -57
-17 -99 -15 -91 -17 -95 -53 -104 -33 -9 -33 -7 -12 120 8 50 15 93 15 98 0 4
16 7 36 7 32 0 36 -2 31 -22z"/>
<path d="M9515 1398 c-5 -18 -25 -200 -25 -233 0 -27 1 -27 42 -21 23 4 44 8
45 10 4 4 33 213 33 239 0 14 -9 17 -45 17 -28 0 -47 -5 -50 -12z m80 -45 c-2
-21 -9 -70 -15 -110 -5 -39 -10 -74 -10 -76 0 -3 -14 -7 -31 -9 l-32 -5 7 81
c13 152 14 156 52 156 34 0 34 -1 29 -37z"/>
<path d="M9236 1353 c-3 -27 -8 -87 -12 -135 l-6 -88 45 0 c53 0 52 -1 62 140
4 52 9 103 12 113 4 14 -3 17 -45 17 l-50 0 -6 -47z m80 -70 c-10 -136 -12
-143 -48 -143 l-30 0 7 113 c4 61 9 115 12 120 2 4 18 7 35 7 l31 0 -7 -97z"/>
<path d="M9363 1273 c-5 -71 -9 -130 -7 -133 1 -3 22 -4 46 -2 l45 4 14 129
14 129 -51 0 -50 0 -11 -127z m86 -7 l-12 -116 -35 0 c-33 0 -34 1 -29 33 4
17 9 69 13 114 l6 82 32 3 c17 2 32 2 34 1 2 -1 -2 -53 -9 -117z"/>
<path d="M9096 1313 c-3 -42 -6 -103 -6 -136 0 -57 1 -59 23 -53 12 3 32 6 44
6 23 0 22 -2 39 188 l6 72 -50 0 -49 0 -7 -77z m89 19 c-2 -20 -7 -72 -11
-114 l-6 -78 -31 0 -32 0 6 97 c4 54 7 106 8 115 1 10 11 18 29 20 39 5 43 1
37 -40z"/>
<path d="M8705 1140 c-29 -12 -61 -51 -69 -83 -13 -55 46 -127 104 -127 29 0
76 26 94 52 56 79 -39 196 -129 158z m89 -20 c7 -7 0 -21 -21 -42 l-32 -32
-23 20 -23 19 19 -23 20 -23 -32 -32 c-27 -27 -34 -30 -42 -17 -13 20 -13 76
0 100 23 43 103 61 134 30z m46 -76 c0 -62 -56 -111 -115 -100 -19 4 -36 10
-39 14 -2 4 9 22 26 41 l30 33 26 -23 27 -24 -24 27 -23 26 33 31 c31 27 35
29 47 14 6 -9 12 -27 12 -39z"/>
<path d="M9109 997 c39 -49 233 -155 264 -144 5 1 -24 16 -64 32 -68 26 -103
46 -184 107 -20 15 -25 16 -16 5z"/>
<path d="M12092 3279 c62 -32 91 -98 70 -159 -6 -16 -7 -30 -3 -30 5 0 11 10
15 23 11 41 6 82 -14 115 -19 31 -74 72 -95 72 -5 -1 7 -10 27 -21z"/>
<path d="M12020 3263 c-57 -18 -90 -56 -90 -103 0 -62 65 -117 126 -106 69 14
108 107 68 165 -13 18 -74 54 -86 50 -2 0 -10 -3 -18 -6z m84 -39 c49 -50 29
-131 -38 -154 -63 -20 -121 23 -121 92 0 80 101 120 159 62z"/>
<path d="M11980 3195 c-22 -35 -22 -36 -3 -68 16 -26 26 -33 59 -35 37 -3 42
0 59 32 18 34 18 35 0 70 -17 31 -24 36 -56 36 -32 0 -41 -5 -59 -35z m106 -9
c15 -31 15 -35 -1 -60 -26 -39 -74 -36 -98 5 -17 30 -16 32 4 60 30 43 74 41
95 -5z"/>
<path d="M12175 2121 c-39 -6 -40 -6 -37 -46 6 -81 17 -146 25 -145 4 0 26 0
48 0 l41 0 -6 58 c-13 111 -18 142 -25 141 -3 -1 -24 -5 -46 -8z m49 -48 c3
-21 8 -59 11 -85 l6 -48 -35 0 c-30 0 -36 4 -37 23 0 12 -4 48 -8 79 -7 56 -6
57 19 61 14 2 28 5 32 6 3 0 9 -16 12 -36z"/>
<path d="M3106 2944 c-9 -8 -16 -22 -16 -29 0 -7 7 -21 16 -29 8 -9 22 -16 29
-16 7 0 21 7 29 16 9 8 16 22 16 29 0 7 -7 21 -16 29 -8 9 -22 16 -29 16 -7 0
-21 -7 -29 -16z m58 -16 c8 -14 7 -21 -5 -33 -28 -29 -73 11 -48 42 15 17 38
13 53 -9z"/>
<path d="M4700 2941 c-16 -31 4 -63 37 -59 34 4 52 32 37 56 -16 26 -60 28
-74 3z m65 -21 c0 -30 -35 -40 -55 -15 -10 12 -10 18 0 30 20 25 55 15 55 -15z"/>
<path d="M6062 2938 c-27 -27 -6 -68 35 -68 29 0 48 33 33 60 -12 22 -49 27
-68 8z m58 -13 c10 -12 10 -18 0 -30 -26 -32 -68 -8 -54 30 4 8 14 15 24 15
10 0 23 -7 30 -15z"/>
<path d="M6272 2938 c-29 -29 -3 -72 40 -66 19 2 23 9 23 38 0 30 -4 35 -25
38 -14 2 -31 -3 -38 -10z m53 -28 c0 -18 -6 -26 -23 -28 -13 -2 -25 3 -28 12
-10 26 4 48 28 44 17 -2 23 -10 23 -28z"/>
<path d="M4112 2948 c-27 -27 -6 -68 35 -68 29 0 48 33 33 60 -12 22 -49 27
-68 8z m58 -13 c10 -12 10 -18 0 -30 -26 -32 -68 -8 -54 30 4 8 14 15 24 15
10 0 23 -7 30 -15z"/>
<path d="M1499 2911 c-21 -16 -22 -22 -11 -45 8 -17 19 -26 36 -26 47 0 61 50
20 77 -19 12 -24 11 -45 -6z m56 -25 c0 -29 -31 -44 -50 -25 -23 23 -9 51 24
47 18 -2 26 -9 26 -22z"/>
<path d="M1292 2898 c-18 -18 -15 -56 6 -66 9 -6 27 -6 40 -1 38 14 24 79 -18
79 -9 0 -21 -5 -28 -12z m53 -28 c0 -18 -6 -26 -23 -28 -13 -2 -25 3 -28 12
-10 26 4 48 28 44 17 -2 23 -10 23 -28z"/>
<path d="M900 2856 c-6 -8 -10 -25 -8 -38 2 -19 9 -23 38 -23 29 0 36 4 38 23
4 28 -14 52 -38 52 -10 0 -23 -7 -30 -14z m55 -26 c0 -18 -6 -26 -23 -28 -24
-4 -38 18 -28 44 3 9 15 14 28 12 17 -2 23 -10 23 -28z"/>
<path d="M1016 2801 c-22 -3 -41 -12 -44 -19 -3 -11 6 -12 44 -7 78 10 95 15
89 25 -7 11 -26 11 -89 1z"/>
<path d="M2518 2939 c-28 -16 -23 -57 8 -71 23 -11 29 -10 45 11 17 21 18 26
6 45 -17 25 -35 30 -59 15z m36 -5 c21 -8 21 -50 0 -58 -32 -12 -57 27 -32 52
14 14 12 14 32 6z"/>
<path d="M5674 2936 c-3 -8 -4 -25 -2 -38 2 -18 9 -23 32 -23 36 0 56 27 40
53 -14 22 -62 28 -70 8z m61 -26 c0 -18 -6 -26 -23 -28 -13 -2 -25 3 -28 12
-10 26 4 48 28 44 17 -2 23 -10 23 -28z"/>
<path d="M2157 2873 c-17 -16 -3 -23 47 -23 60 0 89 7 80 21 -6 10 -117 12
-127 2z"/>
<path d="M3543 2934 c-10 -26 11 -49 43 -49 25 0 29 4 32 33 2 17 -1 32 -5 32
-5 0 -9 -12 -8 -27 0 -23 -4 -28 -25 -28 -21 0 -25 5 -25 28 1 31 -3 34 -12
11z"/>
<path d="M6667 2923 c-14 -14 -6 -53 13 -63 28 -15 60 4 60 35 0 13 -4 26 -8
29 -4 2 -8 -8 -7 -22 0 -22 -4 -27 -25 -27 -21 0 -25 5 -25 28 1 30 1 30 -8
20z"/>
<path d="M1773 2395 c-36 -15 -55 -58 -41 -94 29 -80 149 -59 148 25 -1 58
-53 92 -107 69z m75 -27 c17 -14 15 -63 -4 -82 -19 -19 -68 -21 -82 -3 -24 30
-23 56 3 82 26 26 52 27 83 3z"/>
<path d="M560 2377 c-14 -7 -32 -27 -42 -45 -31 -63 10 -132 79 -132 45 0 69
14 89 51 20 40 11 82 -28 114 -33 28 -60 31 -98 12z m94 -33 c32 -33 33 -65 3
-100 -43 -50 -116 -29 -132 37 -5 19 0 34 20 57 34 40 72 42 109 6z"/>
<path d="M232 2737 c-33 -34 -44 -60 -17 -37 17 14 59 70 53 70 -2 0 -18 -15
-36 -33z"/>
<path d="M102 2328 c-28 -28 -3 -72 39 -66 30 4 47 33 33 56 -14 21 -55 27
-72 10z m62 -13 c8 -22 -4 -45 -24 -45 -28 0 -45 27 -30 45 7 8 20 15 30 15
10 0 20 -7 24 -15z"/>
<path d="M450 1881 c-16 -31 4 -63 37 -59 34 4 52 32 37 56 -16 26 -60 28 -74
3z m65 -11 c8 -26 -1 -40 -26 -40 -22 0 -34 22 -25 45 8 22 44 18 51 -5z"/>
<path d="M1466 1764 c-19 -18 -21 -45 -4 -62 17 -17 44 -15 62 4 21 20 20 30
-4 54 -24 24 -34 25 -54 4z m58 -19 c7 -20 -18 -49 -38 -42 -25 10 -32 38 -12
53 20 14 42 9 50 -11z"/>
<path d="M1664 1746 c-9 -23 -1 -48 19 -60 25 -16 52 4 52 40 0 25 -4 29 -33
32 -22 2 -34 -2 -38 -12z m61 -26 c0 -18 -6 -26 -23 -28 -24 -4 -38 18 -28 44
3 9 15 14 28 12 17 -2 23 -10 23 -28z"/>
<path d="M2059 1731 c-21 -16 -22 -22 -11 -45 15 -33 56 -36 72 -5 14 25 8 44
-19 58 -15 8 -24 7 -42 -8z m55 -17 c7 -19 -10 -44 -29 -44 -19 0 -36 25 -29
44 3 9 16 16 29 16 13 0 26 -7 29 -16z"/>
<path d="M3086 1708 c-27 -38 12 -81 53 -58 27 14 28 56 2 70 -28 15 -38 13
-55 -12z m58 -11 c8 -12 7 -21 -5 -32 -21 -21 -49 -9 -49 20 0 36 34 44 54 12z"/>
<path d="M6416 1717 c-38 -27 2 -95 42 -71 24 16 28 55 6 71 -10 7 -21 13 -24
13 -3 0 -14 -6 -24 -13z m49 -37 c0 -18 -6 -26 -23 -28 -13 -2 -25 3 -28 12
-10 26 4 48 28 44 17 -2 23 -10 23 -28z"/>
<path d="M6205 1707 c-13 -10 -16 -21 -11 -40 8 -34 41 -44 67 -21 24 21 24
36 1 57 -22 21 -33 21 -57 4z m55 -16 c7 -15 6 -24 -6 -36 -19 -18 -33 -16
-48 7 -7 12 -6 21 3 32 18 22 38 20 51 -3z"/>
<path d="M3680 1716 c-28 -35 11 -93 48 -70 35 22 22 84 -18 84 -10 0 -23 -7
-30 -14z m44 -2 c21 -8 21 -50 0 -58 -32 -12 -57 27 -32 52 14 14 12 14 32 6z"/>
<path d="M4649 1709 c-23 -23 -24 -33 -3 -53 33 -34 82 -8 70 38 -8 32 -42 40
-67 15z m58 -15 c8 -20 -21 -49 -41 -41 -9 4 -16 18 -16 32 0 20 5 25 25 25
14 0 28 -7 32 -16z"/>
<path d="M5246 1717 c-38 -27 2 -95 42 -71 24 16 28 55 6 71 -10 7 -21 13 -24
13 -3 0 -14 -6 -24 -13z m49 -37 c0 -18 -6 -26 -23 -28 -13 -2 -25 3 -28 12
-10 26 4 48 28 44 17 -2 23 -10 23 -28z"/>
</g>
</svg>
